<svg width="1024" height="1024" viewBox="0 0 1024 1024" fill="none" xmlns="http://www.w3.org/2000/svg">
<mask id="mask0_3328_715" style="mask-type:alpha" maskUnits="userSpaceOnUse" x="0" y="0" width="1024" height="1024">
<rect width="1024" height="1024" fill="url(#paint0_linear_3328_715)"/>
</mask>
<g mask="url(#mask0_3328_715)">
<rect width="1024" height="1024" rx="80" fill="url(#paint1_linear_3328_715)"/>
<path d="M68 750V953H136" stroke="#A6E3A1" stroke-width="20" stroke-linejoin="round"/>
<path d="M863 72L952 72L952 694" stroke="#A6E3A1" stroke-width="20" stroke-linejoin="round"/>
<path d="M838 956L952 956L952 838" stroke="#A6E3A1" stroke-width="20" stroke-linejoin="round"/>
<path d="M660 72L71 71.9999L71 275" stroke="#A6E3A1" stroke-width="20" stroke-linejoin="round"/>
<path d="M224.826 733.04C202.146 733.04 184.366 729.12 171.486 721.28C158.886 713.16 150.066 701.96 145.026 687.68C139.986 673.4 137.466 656.74 137.466 637.7V452.06L200.046 441.98V507.08H275.226V559.16H200.046V636.86C200.046 645.54 201.026 653.24 202.986 659.96C204.946 666.4 208.446 671.44 213.486 675.08C218.526 678.44 225.666 680.12 234.906 680.12C241.626 680.12 248.486 679.56 255.486 678.44C262.766 677.04 269.346 675.22 275.226 672.98L284.046 721.7C276.486 724.78 268.086 727.44 258.846 729.68C249.606 731.92 238.266 733.04 224.826 733.04ZM292.587 728V507.08H355.167V728H292.587ZM324.087 471.8C314.007 471.8 305.187 468.58 297.627 462.14C290.347 455.42 286.707 446.32 286.707 434.84C286.707 423.36 290.347 414.4 297.627 407.96C305.187 401.24 314.007 397.88 324.087 397.88C334.167 397.88 342.847 401.24 350.127 407.96C357.687 414.4 361.467 423.36 361.467 434.84C361.467 446.32 357.687 455.42 350.127 462.14C342.847 468.58 334.167 471.8 324.087 471.8ZM380.393 728V514.64C391.313 511.56 405.033 508.76 421.553 506.24C438.353 503.44 454.873 502.04 471.113 502.04C487.073 502.04 499.953 504.14 509.753 508.34C519.833 512.26 528.093 517.02 534.533 522.62C540.693 518.14 547.273 514.5 554.273 511.7C561.553 508.62 568.973 506.24 576.533 504.56C584.093 502.88 591.093 502.04 597.533 502.04C621.053 502.04 639.113 506.38 651.713 515.06C664.593 523.46 673.413 535.22 678.173 550.34C683.213 565.46 685.733 583.1 685.733 603.26V728H623.153V610.82C623.153 597.38 622.033 586.6 619.793 578.48C617.553 570.36 613.913 564.48 608.873 560.84C603.833 557.2 597.113 555.38 588.713 555.38C586.473 555.38 583.533 555.8 579.893 556.64C576.533 557.2 573.033 558.18 569.393 559.58C565.753 560.98 562.533 562.52 559.733 564.2C561.693 570.64 562.953 577.5 563.513 584.78C564.073 591.78 564.353 599.34 564.353 607.46V728H501.773V610.82C501.773 597.38 500.653 586.6 498.413 578.48C496.173 570.36 492.533 564.48 487.493 560.84C482.453 557.2 475.733 555.38 467.333 555.38C464.813 555.38 462.153 555.52 459.353 555.8C456.553 555.8 453.753 555.94 450.953 556.22C448.433 556.5 445.773 556.92 442.973 557.48V728H380.393ZM815.221 733.88C788.621 733.88 766.641 728.84 749.281 718.76C732.201 708.68 719.461 694.96 711.061 677.6C702.661 660.24 698.461 640.78 698.461 619.22C698.461 593.18 703.501 571.48 713.581 554.12C723.941 536.48 737.101 523.32 753.061 514.64C769.301 505.68 786.381 501.2 804.301 501.2C825.301 501.2 843.361 505.54 858.481 514.22C873.601 522.62 885.221 535.22 893.341 552.02C901.741 568.82 905.941 589.68 905.941 614.6C905.941 618.24 905.801 622.3 905.521 626.78C905.241 630.98 904.961 634.76 904.681 638.12H762.721C764.121 651 770.141 661.22 780.781 668.78C791.421 676.34 805.701 680.12 823.621 680.12C835.101 680.12 846.301 679.14 857.221 677.18C868.421 674.94 877.521 672.28 884.521 669.2L892.921 720.02C886.201 723.38 875.421 726.46 860.581 729.26C846.021 732.34 830.901 733.88 815.221 733.88ZM762.721 595.28H845.461C845.181 588.28 843.641 581.56 840.841 575.12C838.041 568.68 833.701 563.36 827.821 559.16C822.221 554.96 814.661 552.86 805.141 552.86C795.621 552.86 787.921 554.96 782.041 559.16C776.441 563.08 772.101 568.26 769.021 574.7C765.941 581.14 763.841 588 762.721 595.28Z" fill="#89B4FA"/>
<path d="M516.174 1.0267C516.554 1.63072 516.782 2.4225 516.819 3.02424C516.832 3.21282 516.524 3.11733 516.517 3.24751C516.499 3.50212 516.72 3.73932 516.673 3.99093C516.655 4.07432 516.162 3.97052 516.151 4.05796C516.086 4.53709 516.332 4.99036 516.357 5.47572C516.452 7.86647 516.618 10.2165 516.65 12.6365C516.665 13.4344 516.117 14.4044 516.489 15.2286C516.534 15.3248 517.179 15.2675 517.235 15.2858C518.092 15.5729 516.764 15.4774 516.606 15.6649C515.985 16.4089 515.971 17.2363 516.288 17.9523C516.425 18.2569 517.767 17.9515 517.025 18.2582C516.975 18.2795 516.238 18.2022 516.165 18.2858C516.002 18.4752 516.155 18.8347 516.106 18.9815C516.006 19.2645 516.015 19.3113 516.021 19.579C516.024 19.9449 515.669 20.3801 515.857 20.7726C515.899 20.8564 516.67 20.7455 516.809 20.8791C516.948 21.0129 516.901 21.3667 516.721 21.486C516.542 21.6054 515.925 21.5546 515.785 21.5757C514.6 21.7494 516.264 22.1587 516.308 22.2114C517.044 23.1716 516.116 23.995 516.13 24.8964C516.144 25.5751 516.462 26.3003 516.424 26.9474C516.424 26.9527 516.424 26.9581 516.423 26.9634C516.368 27.7391 515.933 28.3965 516.007 29.1501C516.013 29.2296 516.956 29.1364 516.967 29.2336C517.074 30.2656 516.967 31.2904 516.327 32.3179C516.262 32.4209 515.437 32.2881 515.323 32.3911C514.641 33.0214 513.013 34.0188 516.598 34.3931C516.455 34.8201 516.307 35.3385 515.583 35.7204C515.117 35.9667 514.223 35.7275 514.603 36.0301C514.688 36.0983 515.473 36.0096 515.54 36.1119C515.824 36.5427 515.567 37.0134 515.967 37.4396C516.051 37.5263 516.751 37.5026 516.877 37.5272C517.896 37.7336 516.205 38.0773 516.082 38.1522C515.164 38.7227 515.52 39.1393 515.493 39.6707C515.487 39.794 516.424 39.6482 516.451 39.7669C516.579 40.3824 516.49 41.0199 516.069 41.6226C515.974 41.7566 515.182 41.6334 515.095 41.6974C514.726 41.9799 516.222 42.0425 515.895 42.3134C515.828 42.3705 515.151 42.3383 515.076 42.3487C513.907 42.5118 515.561 42.6534 515.596 42.6954C516.088 43.2258 514.362 43.5649 514.602 44.0774C514.632 44.1387 515.486 44.0004 515.519 44.1728C515.74 45.3209 515.487 46.5351 514.801 47.6715C514.695 47.8482 514.065 47.7221 513.987 47.7332C512.769 47.9144 514.398 48.0317 514.458 48.0893C514.893 48.5438 513.53 48.9684 515.456 49.2772C514.764 51.2021 515.789 53.1182 514.079 55.0272C514.059 55.0515 513.285 55.008 513.249 55.0564C512.81 55.6395 514.015 55.5275 515.472 55.9133C515.837 56.0105 514.066 56.3062 513.937 56.3323C513.46 56.4276 512.317 56.3288 512.225 56.3607C511.501 56.6248 515.278 56.5817 515.271 56.938C515.264 56.9491 514.572 56.9024 514.502 56.9322C514.284 57.0251 514.558 57.1173 514.319 57.2081C513.763 57.4162 511.941 57.4903 512.999 57.8081C513.136 57.8483 515.263 57.7869 515.156 58.1049C515.111 58.2317 515.136 58.793 514.996 58.9503C514.856 59.1075 514.179 58.9996 514.149 59.0108C513.246 59.4341 512.876 59.2736 511.55 59.4857C510.231 59.6978 513.378 59.639 513.728 59.7254C514.077 59.812 513.336 60.1224 513.08 60.1987C512.824 60.2749 512.397 60.1799 512.252 60.2476C511.307 60.6971 513.804 60.4449 514.299 60.593C515.465 60.9422 513.147 61.2141 512.922 61.5338C512.86 61.6203 513.385 61.5497 513.433 61.6267C513.616 61.9318 512.9 62.1152 513.551 62.4623C513.658 62.519 515.024 62.7996 514.015 62.9812C513.87 63.0069 513.303 62.9338 513.175 63.0638C512.982 63.258 512.857 63.608 513.044 63.8167C513.182 63.9708 514.112 63.7942 513.821 63.9882C513.691 64.0744 513.15 63.9146 512.952 64.0766C512.755 64.2377 512.776 64.6497 512.794 64.8064C512.812 64.9629 513.511 64.8773 513.558 64.8899C513.826 64.9664 514.157 65.2667 514.155 65.2933C514.21 66.6319 513.042 67.8662 513.405 69.1695C513.432 69.2718 514.141 69.2037 514.152 69.2193C514.442 69.5694 512.566 69.2934 511.937 69.5379C513.37 69.5026 513.109 69.647 513.262 69.8936C513.338 70.0125 513.89 69.9477 513.947 69.9586C514.781 70.1348 513.696 70.2576 513.476 70.2892C512.662 70.4059 513.619 70.5329 513.077 70.6124C512.539 70.6918 511.743 70.5091 511.754 70.7456C512.259 70.8119 513.585 70.6363 513.797 70.8159C514.591 71.4935 513.532 72.7584 513.423 73.3032C513.31 73.8469 513.398 74.0225 513.217 74.3394C512.892 74.9117 513.837 74.7019 514.256 75.0573C514.674 75.4137 512.381 75.2404 511.886 75.2917C511.393 75.3419 511.901 75.3969 511.63 75.4594C511.36 75.5218 511.023 75.3868 510.923 75.5334C510.825 75.6802 511.701 76.0813 512.211 76.1334C513.293 76.2433 514.432 76.0625 514.023 76.4508C513.999 76.4731 513.405 76.4006 513.343 76.4862C512.875 77.1653 512.839 77.8708 512.439 78.5491C512.384 78.6423 511.739 78.5589 511.7 78.6132C511.291 79.1786 512.376 78.9765 513.567 79.2863C511.975 79.2167 511.001 79.3881 510.999 79.8172C510.996 80.0751 511.685 80.0307 512.169 80.1975C512.314 80.2475 511.844 80.4301 512.165 80.4631C513.216 80.5722 514.395 80.4003 513.915 80.8427C513.893 80.8621 513.322 80.8003 513.286 80.8673C513.052 81.3008 514.14 81.3527 514.254 81.8213C514.342 82.1886 513.67 82.8418 513.557 83.26C511.865 83.2512 512.256 83.6462 513.407 83.8065C513.354 84.0779 513.412 84.371 513.249 84.6334C513.193 84.7237 512.716 84.6643 512.664 84.6757C511.853 84.8503 512.958 84.9683 513 85.0269C513.404 85.6618 512.576 86.1791 513.36 86.7851C513.388 86.8066 514.493 86.8415 513.681 87.0034C513.625 87.0139 513.127 86.8138 513.082 87.0988C513.036 87.3839 512.447 87.9214 512.942 88.3172C513.063 88.413 513.925 88.6552 513.242 88.8497C513.149 88.8756 512.844 88.8472 512.673 88.8846C512.13 89.0055 513.204 89.0715 512.291 89.2136C511.378 89.3556 510.712 89.6512 511.338 90.0503C511.356 90.063 512.192 90.1575 512.177 90.2831C512.155 90.4834 511.982 90.7679 511.988 90.9771C511.991 91.0773 512.5 91.0132 512.509 91.0306C512.785 91.7042 512.328 92.1836 512.138 92.9052C512.104 93.0375 512.761 93.4176 512.238 93.6737C511.671 93.9549 509.31 93.6659 509.901 94.3123C510.145 94.573 513.06 94.903 511.558 95.3715C511.928 96.2801 511.2 97.1203 511.712 98.0314C511.734 98.0724 512.485 98.202 512.473 98.2983C512.454 98.4413 512.106 98.5198 512.083 98.6219C511.979 99.0497 512.27 99.4413 512.221 99.8538C512.204 100.01 511.859 99.9557 511.841 100.142C511.824 100.329 512.271 100.454 512.055 100.707C511.889 100.898 510.991 101.089 510.897 101.342C511.778 101.352 511.762 101.526 511.991 101.836C512.036 101.895 512.337 101.831 512.374 101.86C512.527 101.974 512.277 102.08 512.444 102.189C512.484 102.215 512.776 102.217 512.825 102.238C513.248 102.422 512.586 102.725 512.475 102.777C512.046 102.977 512.418 103.07 512.249 103.223C512.083 103.376 511.876 103.147 511.776 103.326C511.572 103.696 511.626 104.171 511.618 104.547C511.616 104.697 511.976 104.594 511.984 104.616C512.073 104.926 511.701 105.239 512.398 105.411C510.598 105.626 512.572 105.598 512.207 106.041C512.178 106.076 511.348 106.12 511.221 105.986C511.094 105.852 511.352 105.649 511.152 105.463C511.107 105.419 510.292 105.167 510.239 105.133C509.835 104.863 511.134 104.825 511.206 104.811C511.977 104.649 511.087 104.341 511.019 104.26C510.72 103.888 510.896 103.573 510.675 103.263C510.531 103.059 509.622 103.04 509.637 102.88C509.682 102.35 510.986 102.165 509.817 101.665C509.566 101.558 508.533 101.665 509.32 101.281C509.368 101.257 510.108 100.972 509.615 100.807C509.553 100.787 509.243 100.787 509.215 100.76C509.031 100.577 509.269 100.455 509.133 100.256C508.997 100.057 508.794 99.8179 508.883 99.5906C508.935 99.4537 509.522 99.2779 509.667 99.2123C510.083 99.0272 509.367 98.8287 509.881 98.714C510.402 98.5983 511.205 98.8244 511.541 98.5211C510.683 98.5099 509.801 98.4841 508.936 98.466C508.91 97.8013 509.146 97.1474 509.06 96.4804C509.048 96.3978 508.568 96.4823 508.542 96.3937C508.431 96.0197 508.756 95.6931 508.585 95.3053C508.45 95.0051 507.886 94.6759 507.717 94.362C508.787 94.1703 508.384 93.7045 508.457 93.3661C508.483 93.2476 508.781 93.2555 508.873 93.1712C509.213 92.8532 508.232 93.0022 508.069 92.915C507.366 92.541 509.624 92.509 509.549 92.068C509.548 92.0446 508.306 91.7591 508.225 91.7197C507.705 91.4698 508.649 91.6784 508.729 91.522C508.876 91.2364 509.164 91.0379 508.776 90.7029C508.663 90.6052 507.858 90.3708 508.454 90.1811C508.532 90.1561 508.952 90.1699 508.975 90.1498C509.365 89.7862 508.042 89.7766 507.573 89.5688C507.102 89.361 507.999 89.04 508.264 88.9747C508.946 88.8038 508.568 89.1056 508.637 89.1149C509.45 89.2236 509.299 88.9895 509.358 88.8106C510.681 88.7847 510.596 88.5345 509.415 88.6252C509.287 88.6355 509.417 88.7747 509.358 88.8106C508.053 88.6536 507.854 88.3786 509.067 88.075C509.637 87.9329 510.317 88.0672 510.055 87.6354C509.936 87.4395 509.006 87.5152 508.741 87.3423C508.132 86.9472 508.982 86.4338 508.822 86.0265C508.763 85.8786 508.246 86.0227 508.187 85.9216C508.026 85.6535 508.408 85.417 508.188 85.1478C508.167 85.1234 507.614 85.183 507.601 85.0992C507.489 84.4645 507.812 83.9117 507.781 83.2489C507.765 82.9287 507.407 82.3562 507.448 82.0244C507.515 81.4495 508.339 80.7421 508.103 80.251C507.95 79.9306 507.351 80.0009 506.931 79.8636C506.112 79.5987 507.514 79.1299 507.737 79.0667C507.744 79.0648 507.903 79.3405 508.208 79.1934C508.855 79.1079 507.74 79.0699 507.737 79.0667C507.878 79.0253 507.988 78.4746 507.864 78.3653C507.797 78.3058 507.215 78.3391 507.19 78.3081C506.621 77.5718 506.412 76.8341 506.644 76.0873C506.655 76.0742 507.328 76.0939 507.347 76.063C507.622 75.6307 506.782 75.3538 506.262 74.9972C505.744 74.6407 505.885 74.358 507.053 74.1469C506.889 73.8779 507.391 73.492 507.701 73.2699C508.011 73.0478 506.654 73.0168 506.626 72.9972C505.729 72.3878 506.484 72.0354 506.573 71.4031C506.616 71.1025 506.382 70.5061 506.21 70.1806C506.072 69.9234 506.392 69.7684 506.168 69.5314C506.138 69.4993 505.514 69.5317 505.489 69.5219C504.722 69.2574 506.263 69.3845 506.533 69.3299C507.518 69.1319 508.048 69.0095 507.562 68.6708C507.453 68.5926 505.215 68.365 505.074 68.2226C504.896 68.0374 505.701 68.1073 505.495 67.9134C505.478 67.8968 504.984 67.9002 504.998 67.7805C505.056 67.225 505.31 66.6194 505.226 66.0421C505.216 65.9632 504.424 66.0643 504.396 65.9504C504.266 65.4157 504.256 64.8297 504.603 64.3089C504.691 64.1807 505.263 64.2611 505.43 64.2332C506.442 64.0624 504.946 63.8201 504.914 63.7801C504.14 62.8265 505.458 62.0966 504.757 61.1247C504.718 61.0718 503.062 60.6645 504.452 60.4828C504.544 60.4704 505.972 60.2906 504.982 60.1317C504.919 60.1218 504.185 60.2338 504.25 60.0383C504.315 59.8428 503.801 59.5283 504.605 59.2596C504.857 59.1745 506.295 58.9734 505.13 58.7197C505.051 58.7031 502.413 58.3114 504.212 58.1716C504.508 58.1489 506.423 58.1726 505.428 57.8697C505.235 57.8119 504.813 57.9169 504.538 57.7645C504.114 57.5309 504.615 57.2214 503.742 56.9343C503.588 56.8842 502.265 56.6711 503.251 56.5001C503.406 56.4733 504.054 56.5242 504.122 56.4339C504.448 56.0045 503.993 55.5549 504.424 55.1189C504.575 54.9645 505.631 55.0434 505.908 54.8825C506.184 54.7215 506.446 54.3972 505.958 54.2287C505.468 54.0602 503.789 54.2443 503.643 53.9919C503.002 52.8945 503.949 51.8075 504.057 50.7118C504.073 50.5493 503.464 50.684 503.442 50.4446C503.362 49.5616 502.716 48.0372 504.016 47.271C505.06 46.6572 505.89 47.4297 506.311 46.9606C506.513 46.7342 504.475 46.4893 504.409 46.4347C503.742 45.9009 504.633 45.5299 504.343 45.0494C504.283 44.9502 503.457 45.0475 503.415 44.9631C503.262 44.6746 503.623 44.3715 503.548 44.0959C503.512 43.9722 502.878 43.995 502.923 43.8812C503.025 43.609 503.285 43.3683 503.875 43.1029C503.929 43.0787 504.725 43.2418 504.75 43.0404C504.787 42.7144 505.369 42.3097 504.752 41.9347C504.566 41.8234 503.104 41.819 504.108 41.5798C504.318 41.5296 506.075 41.5937 504.552 41.315C504.3 41.2682 502.238 40.8001 503.555 40.5704C503.901 40.5098 505.34 40.3551 505.111 40.2213C505.074 40.2031 504.288 40.2758 504.208 40.1649C503.943 39.7741 504.019 39.3645 503.764 38.963C503.694 38.8558 502.879 39.0155 502.801 38.8557C502.585 38.4163 502.782 37.8677 503.031 37.438C503.125 37.2795 503.807 37.389 503.881 37.3775C505.082 37.1921 503.455 37.0825 503.359 37.021C502.784 36.6384 503.544 36.347 503.336 35.9943C503.281 35.8969 502.505 35.966 502.436 35.9466C501.755 35.7457 503.153 35.8953 503.305 35.7681C503.735 35.4118 503.668 35.0146 503.564 34.6542C503.525 34.5219 502.624 34.6706 502.599 34.5518C502.434 33.8488 502.511 33.1179 503.003 32.4318C503.098 32.3026 503.796 32.3839 503.955 32.3569C505.067 32.1714 503.545 31.8994 503.4 31.8368C502.736 31.5522 503.352 31.4417 503.235 31.1904C502.653 29.9628 503.056 28.4471 503.308 27.2883C503.333 27.1727 503.36 27.0592 503.388 26.9474C503.733 25.5974 504.316 24.4963 504.223 23.1665C504.218 23.075 503.295 23.1673 503.279 23.0884C503.119 22.0699 503.555 21.0671 503.403 20.0465C503.393 19.9627 502.534 20.0835 502.49 19.949C502.395 19.6733 502.487 19.324 502.79 19.0452C502.936 18.9093 503.628 19.0917 503.76 18.9548C504.066 18.6361 504.165 18.2945 504.076 17.9671C504.037 17.8278 503.169 18.038 503.186 17.8569C503.279 16.6235 503.392 15.4121 504.638 14.1657C504.725 14.0803 506.307 14.0053 506.034 13.8236C505.603 13.8099 505.093 13.8107 504.632 13.8047C504.745 12.0091 505.683 10.2319 506.21 8.43132C506.233 8.3554 505.512 8.48661 505.557 8.33963C505.808 7.48895 505.923 6.66289 506.793 5.79275C506.878 5.70641 507.912 5.75071 507.818 5.49628C507.8 5.45141 507.764 5.06822 507.577 4.96914C507.549 4.95569 507.061 5.0256 507.087 4.90212C507.246 4.18455 507.616 3.43258 508.093 2.71626C508.17 2.60065 508.55 2.72377 508.606 2.64142C508.984 2.05733 508.887 1.422 509.377 0.863871C509.695 0.490279 510.252 0.628593 510.856 0.430071C510.94 0.401992 510.983 0.170652 511.304 0.158689C512.109 0.127976 513.006 0.240029 513.866 0.194051C514.008 0.186548 513.878 2.82547e-05 514.035 0C514.035 0 514.035 0 514.035 0C514.081 8.32199e-06 514.152 0.0162088 514.264 0.0579486C514.297 0.0707635 514.51 0.295387 514.684 0.350712C514.804 0.389231 515.114 0.319819 515.282 0.39841C515.452 0.476994 515.198 0.563349 515.414 0.693641C515.634 0.823875 516.01 0.76661 516.174 1.0267ZM509.098 72.2699C509.749 72.0642 507.339 72.0339 507.925 72.2563C507.957 72.2671 509.066 72.2805 509.098 72.2699ZM510.341 97.1511C511.031 96.8822 509.99 96.6983 509.457 96.8879C508.93 97.0776 510.134 97.233 510.341 97.1511ZM510.933 99.9389C511.439 99.6247 509.336 99.5752 509.782 99.9118C509.807 99.9313 510.904 99.9573 510.933 99.9389ZM510.916 1.35071C510.934 1.34788 510.968 1.18158 510.952 1.17761C510.558 1.08906 510.475 1.42158 510.916 1.35071ZM511.492 102.705C511.75 102.607 511.445 102.325 511.123 102.447C510.865 102.545 511.173 102.828 511.492 102.705ZM511.629 61.5425C511.668 61.5392 511.704 61.42 511.48 61.4224C510.761 61.4305 510.966 61.5964 511.629 61.5425ZM511.589 107.407C511.628 106.713 513.029 106.291 512.846 107.048C512.815 107.185 512.42 106.753 512.294 106.927C512.072 107.246 512.904 107.458 512.451 107.784C512.372 107.842 511.587 107.447 511.587 107.406C511.588 107.406 511.589 107.407 511.589 107.407ZM511.985 72.1514C512.017 72.1473 512.047 71.9823 512.015 71.9783C511.249 71.889 511.191 72.2214 511.985 72.1514ZM513.326 54.5856C513.404 54.5765 513.48 54.1935 513.408 54.181C511.966 53.9812 511.814 54.7555 513.326 54.5856ZM513.512 83.2666C514.173 83.4467 514.24 83.6621 513.408 83.8057C513.456 83.6267 513.467 83.4465 513.512 83.2666Z" fill="#8AFF80"/>
<path d="M516.174 917.237C516.554 917.841 516.782 918.633 516.819 919.235C516.832 919.423 516.524 919.328 516.517 919.458C516.499 919.713 516.72 919.95 516.673 920.201C516.655 920.285 516.162 920.181 516.151 920.268C516.086 920.748 516.332 921.201 516.357 921.686C516.452 924.077 516.618 926.427 516.65 928.847C516.665 929.645 516.117 930.615 516.489 931.439C516.534 931.535 517.179 931.478 517.235 931.496C518.092 931.783 516.764 931.688 516.606 931.875C515.985 932.619 515.971 933.447 516.288 934.163C516.425 934.467 517.767 934.162 517.025 934.469C516.975 934.49 516.238 934.413 516.165 934.496C516.002 934.686 516.155 935.045 516.106 935.192C516.006 935.475 516.015 935.522 516.021 935.789C516.024 936.155 515.669 936.591 515.857 936.983C515.899 937.067 516.67 936.956 516.809 937.09C516.948 937.223 516.901 937.577 516.721 937.697C516.542 937.816 515.925 937.765 515.785 937.786C514.6 937.96 516.264 938.369 516.308 938.422C517.044 939.382 516.116 940.206 516.13 941.107C516.144 941.786 516.462 942.511 516.424 943.158C516.424 943.163 516.424 943.169 516.423 943.174C516.368 943.95 515.933 944.607 516.007 945.361C516.013 945.44 516.956 945.347 516.967 945.444C517.074 946.476 516.967 947.501 516.327 948.528C516.262 948.631 515.437 948.499 515.323 948.602C514.641 949.232 513.013 950.229 516.598 950.604C516.455 951.031 516.307 951.549 515.583 951.931C515.117 952.177 514.223 951.938 514.603 952.241C514.688 952.309 515.473 952.22 515.54 952.322C515.824 952.753 515.567 953.224 515.967 953.65C516.051 953.737 516.751 953.713 516.877 953.738C517.896 953.944 516.205 954.288 516.082 954.363C515.164 954.933 515.52 955.35 515.493 955.881C515.487 956.005 516.424 955.859 516.451 955.977C516.579 956.593 516.49 957.23 516.069 957.833C515.974 957.967 515.182 957.844 515.095 957.908C514.726 958.19 516.222 958.253 515.895 958.524C515.828 958.581 515.151 958.549 515.076 958.559C513.907 958.722 515.561 958.864 515.596 958.906C516.088 959.436 514.362 959.775 514.602 960.288C514.632 960.349 515.486 960.211 515.519 960.383C515.74 961.531 515.487 962.746 514.801 963.882C514.695 964.059 514.065 963.933 513.987 963.944C512.769 964.125 514.398 964.242 514.458 964.3C514.893 964.754 513.53 965.179 515.456 965.488C514.764 967.413 515.789 969.329 514.079 971.238C514.059 971.262 513.285 971.219 513.249 971.267C512.81 971.85 514.015 971.738 515.472 972.124C515.837 972.221 514.066 972.517 513.937 972.543C513.46 972.638 512.317 972.539 512.225 972.571C511.501 972.835 515.278 972.792 515.271 973.149C515.264 973.16 514.572 973.113 514.502 973.143C514.284 973.236 514.558 973.328 514.319 973.419C513.763 973.627 511.941 973.701 512.999 974.019C513.136 974.059 515.263 973.997 515.156 974.315C515.111 974.442 515.136 975.004 514.996 975.161C514.856 975.318 514.179 975.21 514.149 975.221C513.246 975.645 512.876 975.484 511.55 975.696C510.231 975.908 513.378 975.849 513.728 975.936C514.077 976.023 513.336 976.333 513.08 976.409C512.824 976.485 512.397 976.39 512.252 976.458C511.307 976.908 513.804 976.655 514.299 976.804C515.465 977.153 513.147 977.425 512.922 977.744C512.86 977.831 513.385 977.76 513.433 977.837C513.616 978.142 512.9 978.326 513.551 978.673C513.658 978.73 515.024 979.01 514.015 979.192C513.87 979.217 513.303 979.144 513.175 979.274C512.982 979.469 512.857 979.818 513.044 980.027C513.182 980.181 514.112 980.005 513.821 980.199C513.691 980.285 513.15 980.125 512.952 980.287C512.755 980.448 512.776 980.86 512.794 981.017C512.812 981.173 513.511 981.088 513.558 981.1C513.826 981.177 514.157 981.477 514.155 981.504C514.21 982.842 513.042 984.077 513.405 985.38C513.432 985.482 514.141 985.414 514.152 985.43C514.442 985.78 512.566 985.504 511.937 985.748C513.37 985.713 513.109 985.857 513.262 986.104C513.338 986.223 513.89 986.158 513.947 986.169C514.781 986.345 513.696 986.468 513.476 986.5C512.662 986.616 513.619 986.743 513.077 986.823C512.539 986.902 511.743 986.72 511.754 986.956C512.259 987.022 513.585 986.847 513.797 987.026C514.591 987.704 513.532 988.969 513.423 989.514C513.31 990.057 513.398 990.233 513.217 990.55C512.892 991.122 513.837 990.912 514.256 991.268C514.674 991.624 512.381 991.451 511.886 991.502C511.393 991.552 511.901 991.607 511.63 991.67C511.36 991.732 511.023 991.597 510.923 991.744C510.825 991.891 511.701 992.292 512.211 992.344C513.293 992.454 514.432 992.273 514.023 992.661C513.999 992.684 513.405 992.611 513.343 992.697C512.875 993.376 512.839 994.081 512.439 994.76C512.384 994.853 511.739 994.769 511.7 994.824C511.291 995.389 512.376 995.187 513.567 995.497C511.975 995.427 511.001 995.599 510.999 996.028C510.996 996.286 511.685 996.241 512.169 996.408C512.314 996.458 511.844 996.641 512.165 996.674C513.216 996.783 514.395 996.611 513.915 997.053C513.893 997.073 513.322 997.011 513.286 997.078C513.052 997.511 514.14 997.563 514.254 998.032C514.342 998.399 513.67 999.052 513.557 999.471C511.865 999.462 512.256 999.857 513.407 1000.02C513.354 1000.29 513.412 1000.58 513.249 1000.84C513.193 1000.93 512.716 1000.87 512.664 1000.89C511.853 1001.06 512.958 1001.18 513 1001.24C513.404 1001.87 512.576 1002.39 513.36 1003C513.388 1003.02 514.493 1003.05 513.681 1003.21C513.625 1003.22 513.127 1003.02 513.082 1003.31C513.036 1003.59 512.447 1004.13 512.942 1004.53C513.063 1004.62 513.925 1004.87 513.242 1005.06C513.149 1005.09 512.844 1005.06 512.673 1005.1C512.13 1005.22 513.204 1005.28 512.291 1005.42C511.378 1005.57 510.712 1005.86 511.338 1006.26C511.356 1006.27 512.192 1006.37 512.177 1006.49C512.155 1006.69 511.982 1006.98 511.988 1007.19C511.991 1007.29 512.5 1007.22 512.509 1007.24C512.785 1007.91 512.328 1008.39 512.138 1009.12C512.104 1009.25 512.761 1009.63 512.238 1009.88C511.671 1010.17 509.31 1009.88 509.901 1010.52C510.145 1010.78 513.06 1011.11 511.558 1011.58C511.928 1012.49 511.2 1013.33 511.712 1014.24C511.734 1014.28 512.485 1014.41 512.473 1014.51C512.454 1014.65 512.106 1014.73 512.083 1014.83C511.979 1015.26 512.27 1015.65 512.221 1016.06C512.204 1016.22 511.859 1016.17 511.841 1016.35C511.824 1016.54 512.271 1016.66 512.055 1016.92C511.889 1017.11 510.991 1017.3 510.897 1017.55C511.778 1017.56 511.762 1017.74 511.991 1018.05C512.036 1018.11 512.337 1018.04 512.374 1018.07C512.527 1018.18 512.277 1018.29 512.444 1018.4C512.484 1018.43 512.776 1018.43 512.825 1018.45C513.248 1018.63 512.586 1018.94 512.475 1018.99C512.046 1019.19 512.418 1019.28 512.249 1019.43C512.083 1019.59 511.876 1019.36 511.776 1019.54C511.572 1019.91 511.626 1020.38 511.618 1020.76C511.616 1020.91 511.976 1020.8 511.984 1020.83C512.073 1021.14 511.701 1021.45 512.398 1021.62C510.598 1021.84 512.572 1021.81 512.207 1022.25C512.178 1022.29 511.348 1022.33 511.221 1022.2C511.094 1022.06 511.352 1021.86 511.152 1021.67C511.107 1021.63 510.292 1021.38 510.239 1021.34C509.835 1021.07 511.134 1021.04 511.206 1021.02C511.977 1020.86 511.087 1020.55 511.019 1020.47C510.72 1020.1 510.896 1019.78 510.675 1019.47C510.531 1019.27 509.622 1019.25 509.637 1019.09C509.682 1018.56 510.986 1018.38 509.817 1017.88C509.566 1017.77 508.533 1017.88 509.32 1017.49C509.368 1017.47 510.108 1017.18 509.615 1017.02C509.553 1017 509.243 1017 509.215 1016.97C509.031 1016.79 509.269 1016.67 509.133 1016.47C508.997 1016.27 508.794 1016.03 508.883 1015.8C508.935 1015.66 509.522 1015.49 509.667 1015.42C510.083 1015.24 509.367 1015.04 509.881 1014.92C510.402 1014.81 511.205 1015.03 511.541 1014.73C510.683 1014.72 509.801 1014.69 508.936 1014.68C508.91 1014.01 509.146 1013.36 509.06 1012.69C509.048 1012.61 508.568 1012.69 508.542 1012.6C508.431 1012.23 508.756 1011.9 508.585 1011.52C508.45 1011.22 507.886 1010.89 507.717 1010.57C508.787 1010.38 508.384 1009.91 508.457 1009.58C508.483 1009.46 508.781 1009.47 508.873 1009.38C509.213 1009.06 508.232 1009.21 508.069 1009.13C507.366 1008.75 509.624 1008.72 509.549 1008.28C509.548 1008.26 508.306 1007.97 508.225 1007.93C507.705 1007.68 508.649 1007.89 508.729 1007.73C508.876 1007.45 509.164 1007.25 508.776 1006.91C508.663 1006.82 507.858 1006.58 508.454 1006.39C508.532 1006.37 508.952 1006.38 508.975 1006.36C509.365 1006 508.042 1005.99 507.573 1005.78C507.102 1005.57 507.999 1005.25 508.264 1005.19C508.946 1005.01 508.568 1005.32 508.637 1005.33C509.45 1005.43 509.299 1005.2 509.358 1005.02C510.681 1005 510.596 1004.75 509.415 1004.84C509.287 1004.85 509.417 1004.99 509.358 1005.02C508.053 1004.86 507.854 1004.59 509.067 1004.29C509.637 1004.14 510.317 1004.28 510.055 1003.85C509.936 1003.65 509.006 1003.73 508.741 1003.55C508.132 1003.16 508.982 1002.64 508.822 1002.24C508.763 1002.09 508.246 1002.23 508.187 1002.13C508.026 1001.86 508.408 1001.63 508.188 1001.36C508.167 1001.33 507.614 1001.39 507.601 1001.31C507.489 1000.67 507.812 1000.12 507.781 999.459C507.765 999.139 507.407 998.567 507.448 998.235C507.515 997.66 508.339 996.953 508.103 996.461C507.95 996.141 507.351 996.211 506.931 996.074C506.112 995.809 507.514 995.34 507.737 995.277C507.744 995.275 507.903 995.551 508.208 995.404C508.855 995.318 507.74 995.28 507.737 995.277C507.878 995.236 507.988 994.685 507.864 994.576C507.797 994.516 507.215 994.55 507.19 994.519C506.621 993.782 506.412 993.045 506.644 992.298C506.655 992.285 507.328 992.304 507.347 992.274C507.622 991.841 506.782 991.564 506.262 991.208C505.744 990.851 505.885 990.568 507.053 990.357C506.889 990.088 507.391 989.702 507.701 989.48C508.011 989.258 506.654 989.227 506.626 989.208C505.729 988.598 506.484 988.246 506.573 987.614C506.616 987.313 506.382 986.717 506.21 986.391C506.072 986.134 506.392 985.979 506.168 985.742C506.138 985.71 505.514 985.742 505.489 985.732C504.722 985.468 506.263 985.595 506.533 985.54C507.518 985.342 508.048 985.22 507.562 984.881C507.453 984.803 505.215 984.576 505.074 984.433C504.896 984.248 505.701 984.318 505.495 984.124C505.478 984.107 504.984 984.111 504.998 983.991C505.056 983.436 505.31 982.83 505.226 982.253C505.216 982.174 504.424 982.275 504.396 982.161C504.266 981.626 504.256 981.04 504.603 980.519C504.691 980.391 505.263 980.472 505.43 980.444C506.442 980.273 504.946 980.031 504.914 979.991C504.14 979.037 505.458 978.307 504.757 977.335C504.718 977.282 503.062 976.875 504.452 976.693C504.544 976.681 505.972 976.501 504.982 976.342C504.919 976.332 504.185 976.444 504.25 976.249C504.315 976.053 503.801 975.739 504.605 975.47C504.857 975.385 506.295 975.184 505.13 974.93C505.051 974.914 502.413 974.522 504.212 974.382C504.508 974.359 506.423 974.383 505.428 974.08C505.235 974.022 504.813 974.127 504.538 973.975C504.114 973.741 504.615 973.432 503.742 973.145C503.588 973.095 502.265 972.882 503.251 972.711C503.406 972.684 504.054 972.735 504.122 972.644C504.448 972.215 503.993 971.765 504.424 971.329C504.575 971.175 505.631 971.254 505.908 971.093C506.184 970.932 506.446 970.608 505.958 970.439C505.468 970.271 503.789 970.455 503.643 970.202C503.002 969.105 503.949 968.018 504.057 966.922C504.073 966.76 503.464 966.895 503.442 966.655C503.362 965.772 502.716 964.248 504.016 963.482C505.06 962.868 505.89 963.64 506.311 963.171C506.513 962.945 504.475 962.7 504.409 962.645C503.742 962.111 504.633 961.74 504.343 961.26C504.283 961.161 503.457 961.258 503.415 961.174C503.262 960.885 503.623 960.582 503.548 960.306C503.512 960.183 502.878 960.206 502.923 960.092C503.025 959.819 503.285 959.579 503.875 959.313C503.929 959.289 504.725 959.452 504.75 959.251C504.787 958.925 505.369 958.52 504.752 958.145C504.566 958.034 503.104 958.03 504.108 957.79C504.318 957.74 506.075 957.804 504.552 957.526C504.3 957.479 502.238 957.011 503.555 956.781C503.901 956.72 505.34 956.566 505.111 956.432C505.074 956.414 504.288 956.486 504.208 956.375C503.943 955.985 504.019 955.575 503.764 955.174C503.694 955.066 502.879 955.226 502.801 955.066C502.585 954.627 502.782 954.078 503.031 953.648C503.125 953.49 503.807 953.6 503.881 953.588C505.082 953.403 503.455 953.293 503.359 953.232C502.784 952.849 503.544 952.557 503.336 952.205C503.281 952.107 502.505 952.176 502.436 952.157C501.755 951.956 503.153 952.106 503.305 951.979C503.735 951.622 503.668 951.225 503.564 950.865C503.525 950.732 502.624 950.881 502.599 950.762C502.434 950.059 502.511 949.328 503.003 948.642C503.098 948.513 503.796 948.594 503.955 948.567C505.067 948.382 503.545 948.11 503.4 948.047C502.736 947.763 503.352 947.652 503.235 947.401C502.653 946.173 503.056 944.658 503.308 943.499C503.333 943.383 503.36 943.27 503.388 943.158C503.733 941.808 504.316 940.707 504.223 939.377C504.218 939.286 503.295 939.378 503.279 939.299C503.119 938.28 503.555 937.278 503.403 936.257C503.393 936.173 502.534 936.294 502.49 936.16C502.395 935.884 502.487 935.535 502.79 935.256C502.936 935.12 503.628 935.302 503.76 935.165C504.066 934.847 504.165 934.505 504.076 934.178C504.037 934.038 503.169 934.248 503.186 934.067C503.279 932.834 503.392 931.623 504.638 930.376C504.725 930.291 506.307 930.216 506.034 930.034C505.603 930.02 505.093 930.021 504.632 930.015C504.745 928.22 505.683 926.442 506.21 924.642C506.233 924.566 505.512 924.697 505.557 924.55C505.808 923.699 505.923 922.873 506.793 922.003C506.878 921.917 507.912 921.961 507.818 921.707C507.8 921.662 507.764 921.279 507.577 921.18C507.549 921.166 507.061 921.236 507.087 921.113C507.246 920.395 507.616 919.643 508.093 918.927C508.17 918.811 508.55 918.934 508.606 918.852C508.984 918.268 508.887 917.633 509.377 917.074C509.695 916.701 510.252 916.839 510.856 916.641C510.94 916.613 510.983 916.381 511.304 916.369C512.109 916.338 513.006 916.451 513.866 916.405C514.008 916.397 513.878 916.211 514.035 916.211C514.035 916.211 514.035 916.211 514.035 916.211C514.081 916.211 514.152 916.227 514.264 916.268C514.297 916.281 514.51 916.506 514.684 916.561C514.804 916.6 515.114 916.53 515.282 916.609C515.452 916.688 515.198 916.774 515.414 916.904C515.634 917.034 516.01 916.977 516.174 917.237ZM509.098 988.48C509.749 988.275 507.339 988.244 507.925 988.467C507.957 988.478 509.066 988.491 509.098 988.48ZM510.341 1013.36C511.031 1013.09 509.99 1012.91 509.457 1013.1C508.93 1013.29 510.134 1013.44 510.341 1013.36ZM510.933 1016.15C511.439 1015.84 509.336 1015.79 509.782 1016.12C509.807 1016.14 510.904 1016.17 510.933 1016.15ZM510.916 917.561C510.934 917.558 510.968 917.392 510.952 917.388C510.558 917.3 510.475 917.632 510.916 917.561ZM511.492 1018.92C511.75 1018.82 511.445 1018.54 511.123 1018.66C510.865 1018.76 511.173 1019.04 511.492 1018.92ZM511.629 977.753C511.668 977.75 511.704 977.631 511.48 977.633C510.761 977.641 510.966 977.807 511.629 977.753ZM511.589 1023.62C511.628 1022.92 513.029 1022.5 512.846 1023.26C512.815 1023.4 512.42 1022.96 512.294 1023.14C512.072 1023.46 512.904 1023.67 512.451 1023.99C512.372 1024.05 511.587 1023.66 511.587 1023.62C511.588 1023.62 511.589 1023.62 511.589 1023.62ZM511.985 988.362C512.017 988.358 512.047 988.193 512.015 988.189C511.249 988.099 511.191 988.432 511.985 988.362ZM513.326 970.796C513.404 970.787 513.48 970.404 513.408 970.392C511.966 970.192 511.814 970.966 513.326 970.796ZM513.512 999.477C514.173 999.657 514.24 999.873 513.408 1000.02C513.456 999.837 513.467 999.657 513.512 999.477Z" fill="#8AFF80"/>
<path d="M1.0267 507.826C1.63072 507.446 2.4225 507.218 3.02424 507.181C3.21282 507.168 3.11733 507.476 3.24751 507.483C3.50212 507.501 3.73932 507.28 3.99093 507.327C4.07432 507.345 3.97052 507.838 4.05796 507.849C4.53709 507.914 4.99036 507.668 5.47572 507.643C7.86647 507.548 10.2165 507.382 12.6365 507.35C13.4344 507.335 14.4044 507.883 15.2286 507.511C15.3248 507.466 15.2675 506.821 15.2858 506.765C15.5729 505.908 15.4774 507.236 15.6649 507.394C16.4089 508.015 17.2363 508.029 17.9523 507.712C18.2569 507.575 17.9515 506.233 18.2582 506.975C18.2795 507.025 18.2022 507.762 18.2858 507.835C18.4752 507.998 18.8347 507.845 18.9815 507.894C19.2645 507.994 19.3113 507.985 19.579 507.979C19.9449 507.976 20.3801 508.331 20.7726 508.143C20.8564 508.101 20.7455 507.33 20.8791 507.191C21.0129 507.052 21.3667 507.099 21.486 507.279C21.6054 507.458 21.5546 508.075 21.5757 508.215C21.7494 509.4 22.1587 507.736 22.2114 507.692C23.1716 506.956 23.995 507.884 24.8964 507.87C25.5751 507.856 26.3003 507.538 26.9474 507.576C26.9527 507.576 26.9581 507.576 26.9634 507.577C27.7391 507.632 28.3965 508.067 29.1501 507.993C29.2296 507.987 29.1364 507.044 29.2336 507.033C30.2656 506.926 31.2904 507.033 32.3179 507.673C32.4209 507.738 32.2881 508.563 32.3911 508.677C33.0214 509.359 34.0188 510.987 34.3931 507.402C34.8201 507.545 35.3385 507.693 35.7204 508.417C35.9667 508.883 35.7275 509.777 36.0301 509.397C36.0983 509.312 36.0096 508.527 36.1119 508.46C36.5427 508.176 37.0134 508.433 37.4396 508.033C37.5263 507.949 37.5026 507.249 37.5272 507.123C37.7336 506.104 38.0773 507.795 38.1522 507.918C38.7227 508.836 39.1393 508.48 39.6707 508.507C39.794 508.513 39.6482 507.576 39.7669 507.549C40.3824 507.421 41.0199 507.51 41.6226 507.931C41.7566 508.026 41.6334 508.818 41.6974 508.905C41.9799 509.274 42.0425 507.778 42.3134 508.105C42.3705 508.172 42.3383 508.849 42.3487 508.924C42.5118 510.093 42.6534 508.439 42.6954 508.404C43.2258 507.912 43.5649 509.638 44.0774 509.398C44.1387 509.368 44.0004 508.514 44.1728 508.481C45.3209 508.26 46.5351 508.513 47.6715 509.199C47.8482 509.305 47.7221 509.935 47.7332 510.013C47.9144 511.231 48.0317 509.602 48.0893 509.542C48.5438 509.107 48.9684 510.47 49.2772 508.544C51.2021 509.236 53.1182 508.211 55.0272 509.921C55.0515 509.941 55.008 510.715 55.0564 510.751C55.6395 511.19 55.5275 509.985 55.9133 508.528C56.0105 508.163 56.3062 509.934 56.3323 510.063C56.4276 510.54 56.3288 511.683 56.3607 511.775C56.6248 512.499 56.5817 508.722 56.938 508.729C56.9491 508.736 56.9024 509.428 56.9322 509.498C57.0251 509.716 57.1173 509.442 57.2081 509.681C57.4162 510.237 57.4903 512.059 57.8081 511.001C57.8483 510.864 57.7869 508.737 58.1049 508.844C58.2317 508.889 58.793 508.864 58.9503 509.004C59.1075 509.144 58.9996 509.821 59.0108 509.851C59.4341 510.754 59.2736 511.124 59.4857 512.45C59.6978 513.769 59.639 510.622 59.7254 510.272C59.812 509.923 60.1224 510.664 60.1987 510.92C60.2749 511.176 60.1799 511.603 60.2476 511.748C60.6971 512.693 60.4449 510.196 60.593 509.701C60.9422 508.535 61.2141 510.853 61.5338 511.078C61.6203 511.14 61.5497 510.615 61.6267 510.567C61.9318 510.384 62.1152 511.1 62.4623 510.449C62.519 510.342 62.7996 508.976 62.9812 509.985C63.0069 510.13 62.9338 510.697 63.0638 510.825C63.258 511.018 63.608 511.143 63.8167 510.956C63.9708 510.818 63.7942 509.888 63.9882 510.179C64.0744 510.309 63.9146 510.85 64.0766 511.048C64.2377 511.245 64.6497 511.224 64.8064 511.206C64.9629 511.188 64.8773 510.489 64.8899 510.442C64.9664 510.174 65.2667 509.843 65.2933 509.845C66.6319 509.79 67.8662 510.958 69.1695 510.595C69.2718 510.568 69.2037 509.859 69.2193 509.848C69.5694 509.558 69.2934 511.434 69.5379 512.063C69.5026 510.63 69.647 510.891 69.8936 510.738C70.0125 510.662 69.9477 510.11 69.9586 510.053C70.1348 509.219 70.2576 510.304 70.2892 510.524C70.4059 511.338 70.5329 510.381 70.6124 510.923C70.6918 511.461 70.5091 512.257 70.7456 512.246C70.8119 511.741 70.6363 510.415 70.8159 510.203C71.4935 509.409 72.7584 510.468 73.3032 510.577C73.8469 510.69 74.0225 510.602 74.3394 510.783C74.9117 511.108 74.7019 510.163 75.0573 509.744C75.4137 509.326 75.2404 511.619 75.2917 512.114C75.3419 512.607 75.3969 512.099 75.4594 512.37C75.5218 512.64 75.3868 512.977 75.5334 513.077C75.6802 513.175 76.0813 512.299 76.1334 511.789C76.2433 510.707 76.0625 509.568 76.4508 509.977C76.4731 510.001 76.4006 510.595 76.4862 510.657C77.1653 511.125 77.8708 511.161 78.5491 511.561C78.6423 511.616 78.5589 512.261 78.6132 512.3C79.1786 512.709 78.9765 511.624 79.2863 510.433C79.2167 512.025 79.3881 512.999 79.8172 513.001C80.0751 513.004 80.0307 512.315 80.1975 511.831C80.2475 511.686 80.4301 512.156 80.4631 511.835C80.5722 510.784 80.4003 509.605 80.8427 510.085C80.8621 510.107 80.8003 510.678 80.8673 510.714C81.3008 510.948 81.3527 509.86 81.8213 509.746C82.1886 509.658 82.8418 510.33 83.26 510.443C83.2512 512.135 83.6462 511.744 83.8065 510.593C84.0779 510.646 84.371 510.588 84.6334 510.751C84.7237 510.807 84.6643 511.284 84.6757 511.336C84.8503 512.147 84.9683 511.042 85.0269 511C85.6618 510.596 86.1791 511.424 86.7851 510.64C86.8066 510.612 86.8415 509.507 87.0034 510.319C87.0139 510.375 86.8138 510.873 87.0988 510.918C87.3839 510.964 87.9214 511.553 88.3172 511.058C88.413 510.937 88.6552 510.075 88.8497 510.758C88.8756 510.851 88.8472 511.156 88.8846 511.327C89.0055 511.87 89.0715 510.796 89.2136 511.709C89.3556 512.622 89.6512 513.288 90.0503 512.662C90.063 512.644 90.1575 511.808 90.2831 511.823C90.4834 511.845 90.7679 512.018 90.9771 512.012C91.0773 512.009 91.0132 511.5 91.0306 511.491C91.7042 511.215 92.1836 511.672 92.9052 511.862C93.0375 511.896 93.4176 511.239 93.6737 511.762C93.9549 512.329 93.6659 514.69 94.3123 514.099C94.573 513.855 94.903 510.94 95.3715 512.442C96.2801 512.072 97.1203 512.8 98.0314 512.288C98.0724 512.266 98.202 511.515 98.2983 511.527C98.4413 511.546 98.5198 511.894 98.6219 511.917C99.0497 512.021 99.4413 511.73 99.8538 511.779C100.01 511.796 99.9557 512.141 100.142 512.159C100.329 512.176 100.454 511.729 100.707 511.945C100.898 512.111 101.089 513.009 101.342 513.103C101.352 512.222 101.526 512.238 101.836 512.009C101.895 511.964 101.831 511.663 101.86 511.626C101.974 511.473 102.08 511.723 102.189 511.556C102.215 511.516 102.217 511.224 102.238 511.175C102.422 510.752 102.725 511.414 102.777 511.525C102.977 511.954 103.07 511.582 103.223 511.751C103.376 511.917 103.147 512.124 103.326 512.224C103.696 512.428 104.171 512.374 104.547 512.382C104.697 512.384 104.594 512.024 104.616 512.016C104.926 511.927 105.239 512.299 105.411 511.602C105.626 513.402 105.598 511.428 106.041 511.793C106.076 511.822 106.12 512.652 105.986 512.779C105.852 512.906 105.649 512.648 105.463 512.848C105.419 512.893 105.167 513.708 105.133 513.761C104.863 514.165 104.825 512.866 104.811 512.794C104.649 512.023 104.341 512.913 104.26 512.981C103.888 513.28 103.573 513.104 103.263 513.325C103.059 513.469 103.04 514.378 102.88 514.363C102.35 514.318 102.165 513.014 101.665 514.183C101.558 514.434 101.665 515.467 101.281 514.68C101.257 514.632 100.972 513.892 100.807 514.385C100.787 514.447 100.787 514.757 100.76 514.785C100.577 514.969 100.455 514.731 100.256 514.867C100.057 515.003 99.8179 515.206 99.5906 515.117C99.4537 515.065 99.2779 514.478 99.2123 514.333C99.0272 513.917 98.8287 514.633 98.714 514.119C98.5983 513.598 98.8244 512.795 98.5211 512.459C98.5099 513.317 98.4841 514.199 98.466 515.064C97.8013 515.09 97.1474 514.854 96.4804 514.94C96.3978 514.952 96.4823 515.432 96.3937 515.458C96.0197 515.569 95.6931 515.244 95.3053 515.415C95.0051 515.55 94.6759 516.114 94.362 516.283C94.1703 515.213 93.7045 515.616 93.3661 515.543C93.2476 515.517 93.2555 515.219 93.1712 515.127C92.8532 514.787 93.0022 515.768 92.915 515.931C92.541 516.634 92.509 514.376 92.068 514.451C92.0446 514.452 91.7591 515.694 91.7197 515.775C91.4698 516.295 91.6784 515.351 91.522 515.271C91.2364 515.124 91.0379 514.836 90.7029 515.224C90.6052 515.337 90.3708 516.142 90.1811 515.546C90.1561 515.468 90.1699 515.048 90.1498 515.025C89.7862 514.635 89.7766 515.958 89.5688 516.427C89.361 516.898 89.04 516.001 88.9747 515.736C88.8038 515.054 89.1056 515.432 89.1149 515.363C89.2236 514.55 88.9895 514.701 88.8106 514.642C88.7847 513.319 88.5345 513.404 88.6252 514.585C88.6355 514.713 88.7747 514.583 88.8106 514.642C88.6536 515.947 88.3786 516.146 88.075 514.933C87.9329 514.363 88.0672 513.683 87.6354 513.945C87.4395 514.064 87.5152 514.994 87.3423 515.259C86.9472 515.868 86.4338 515.018 86.0265 515.178C85.8786 515.237 86.0227 515.754 85.9216 515.813C85.6535 515.974 85.417 515.592 85.1478 515.812C85.1234 515.833 85.183 516.386 85.0992 516.399C84.4645 516.511 83.9117 516.188 83.2489 516.219C82.9287 516.235 82.3562 516.593 82.0244 516.552C81.4495 516.485 80.7421 515.661 80.251 515.897C79.9306 516.05 80.0009 516.649 79.8636 517.069C79.5987 517.888 79.1299 516.486 79.0667 516.263C79.0648 516.256 79.3405 516.097 79.1934 515.792C79.1079 515.145 79.0699 516.26 79.0667 516.263C79.0253 516.122 78.4746 516.012 78.3653 516.136C78.3058 516.203 78.3391 516.785 78.3081 516.81C77.5718 517.379 76.8341 517.588 76.0873 517.356C76.0742 517.345 76.0939 516.672 76.063 516.653C75.6307 516.378 75.3538 517.218 74.9972 517.738C74.6407 518.256 74.358 518.115 74.1469 516.947C73.8779 517.111 73.492 516.609 73.2699 516.299C73.0478 515.989 73.0168 517.346 72.9972 517.374C72.3878 518.271 72.0354 517.516 71.4031 517.427C71.1025 517.384 70.5061 517.618 70.1806 517.79C69.9234 517.928 69.7684 517.608 69.5314 517.832C69.4993 517.862 69.5317 518.486 69.5219 518.511C69.2574 519.278 69.3845 517.737 69.3299 517.467C69.1319 516.482 69.0095 515.952 68.6708 516.438C68.5926 516.547 68.365 518.785 68.2226 518.926C68.0374 519.104 68.1073 518.299 67.9134 518.505C67.8968 518.522 67.9002 519.016 67.7805 519.002C67.225 518.944 66.6194 518.69 66.0421 518.774C65.9632 518.784 66.0643 519.576 65.9504 519.604C65.4157 519.734 64.8297 519.744 64.3089 519.397C64.1807 519.309 64.2611 518.737 64.2332 518.57C64.0624 517.558 63.8201 519.054 63.7801 519.086C62.8265 519.86 62.0966 518.542 61.1247 519.243C61.0718 519.282 60.6645 520.938 60.4828 519.548C60.4704 519.456 60.2906 518.028 60.1317 519.018C60.1218 519.081 60.2338 519.815 60.0383 519.75C59.8428 519.685 59.5283 520.199 59.2596 519.395C59.1745 519.143 58.9734 517.705 58.7197 518.87C58.7031 518.949 58.3114 521.587 58.1716 519.788C58.1489 519.492 58.1726 517.577 57.8697 518.572C57.8119 518.765 57.9169 519.187 57.7645 519.462C57.5309 519.886 57.2214 519.385 56.9343 520.258C56.8842 520.412 56.6711 521.735 56.5001 520.749C56.4733 520.594 56.5242 519.946 56.4339 519.878C56.0045 519.552 55.5549 520.007 55.1189 519.576C54.9645 519.425 55.0434 518.369 54.8825 518.092C54.7215 517.816 54.3972 517.554 54.2287 518.042C54.0602 518.532 54.2443 520.211 53.9919 520.357C52.8945 520.998 51.8075 520.051 50.7118 519.943C50.5493 519.927 50.684 520.536 50.4446 520.558C49.5616 520.638 48.0372 521.284 47.271 519.984C46.6572 518.94 47.4297 518.11 46.9606 517.689C46.7342 517.487 46.4893 519.525 46.4347 519.591C45.9009 520.258 45.5299 519.367 45.0494 519.657C44.9502 519.717 45.0475 520.543 44.9631 520.585C44.6746 520.738 44.3715 520.377 44.0959 520.452C43.9722 520.488 43.995 521.122 43.8812 521.077C43.609 520.975 43.3683 520.715 43.1029 520.125C43.0787 520.071 43.2418 519.275 43.0404 519.25C42.7144 519.213 42.3097 518.631 41.9347 519.248C41.8234 519.434 41.819 520.896 41.5798 519.892C41.5296 519.682 41.5937 517.925 41.315 519.448C41.2682 519.7 40.8001 521.762 40.5704 520.445C40.5098 520.099 40.3551 518.66 40.2213 518.889C40.2031 518.926 40.2758 519.712 40.1649 519.792C39.7741 520.057 39.3645 519.981 38.963 520.236C38.8558 520.306 39.0155 521.121 38.8557 521.199C38.4163 521.415 37.8677 521.218 37.438 520.969C37.2795 520.875 37.389 520.193 37.3775 520.119C37.1921 518.918 37.0825 520.545 37.021 520.641C36.6384 521.216 36.347 520.456 35.9943 520.664C35.8969 520.719 35.966 521.495 35.9466 521.564C35.7457 522.245 35.8953 520.847 35.7681 520.695C35.4118 520.265 35.0146 520.332 34.6542 520.436C34.5219 520.475 34.6706 521.376 34.5518 521.401C33.8488 521.566 33.1179 521.489 32.4318 520.997C32.3026 520.902 32.3839 520.204 32.3569 520.045C32.1714 518.933 31.8994 520.455 31.8368 520.6C31.5522 521.264 31.4417 520.648 31.1904 520.765C29.9628 521.347 28.4471 520.944 27.2883 520.692C27.1727 520.667 27.0592 520.64 26.9474 520.612C25.5974 520.267 24.4963 519.684 23.1665 519.777C23.075 519.782 23.1673 520.705 23.0884 520.721C22.0699 520.881 21.0671 520.445 20.0465 520.597C19.9627 520.607 20.0835 521.466 19.949 521.51C19.6733 521.605 19.324 521.513 19.0452 521.21C18.9093 521.064 19.0917 520.372 18.9548 520.24C18.6361 519.934 18.2945 519.835 17.9671 519.924C17.8278 519.963 18.038 520.831 17.8569 520.814C16.6235 520.721 15.4121 520.608 14.1657 519.362C14.0803 519.275 14.0053 517.693 13.8236 517.966C13.8099 518.397 13.8107 518.907 13.8047 519.368C12.0091 519.255 10.2319 518.317 8.43132 517.79C8.3554 517.767 8.48661 518.488 8.33963 518.443C7.48895 518.192 6.66289 518.077 5.79275 517.207C5.70641 517.122 5.75071 516.088 5.49628 516.182C5.45141 516.2 5.06822 516.236 4.96914 516.423C4.95569 516.451 5.0256 516.939 4.90212 516.913C4.18455 516.754 3.43258 516.384 2.71626 515.907C2.60065 515.83 2.72377 515.45 2.64142 515.394C2.05733 515.016 1.422 515.113 0.863871 514.623C0.490279 514.305 0.628593 513.748 0.430071 513.144C0.401992 513.06 0.170652 513.017 0.158689 512.696C0.127976 511.891 0.240029 510.994 0.194051 510.134C0.186548 509.992 2.82547e-05 510.122 0 509.965C0 509.965 0 509.965 0 509.965C8.32199e-06 509.919 0.0162088 509.848 0.0579486 509.736C0.0707635 509.703 0.295387 509.49 0.350712 509.316C0.389231 509.196 0.319819 508.886 0.39841 508.718C0.476994 508.548 0.563349 508.802 0.693641 508.586C0.823875 508.366 0.76661 507.99 1.0267 507.826ZM72.2699 514.902C72.0642 514.251 72.0339 516.661 72.2563 516.075C72.2671 516.043 72.2805 514.934 72.2699 514.902ZM97.1511 513.659C96.8822 512.969 96.6983 514.01 96.8879 514.543C97.0776 515.07 97.233 513.866 97.1511 513.659ZM99.9389 513.067C99.6247 512.561 99.5752 514.664 99.9118 514.218C99.9313 514.193 99.9573 513.096 99.9389 513.067ZM1.35071 513.084C1.34788 513.066 1.18158 513.032 1.17761 513.048C1.08906 513.442 1.42158 513.525 1.35071 513.084ZM102.705 512.508C102.607 512.25 102.325 512.555 102.447 512.877C102.545 513.135 102.828 512.827 102.705 512.508ZM61.5425 512.371C61.5392 512.332 61.42 512.296 61.4224 512.52C61.4305 513.239 61.5964 513.034 61.5425 512.371ZM107.407 512.411C106.713 512.372 106.291 510.971 107.048 511.154C107.185 511.185 106.753 511.58 106.927 511.706C107.246 511.928 107.458 511.096 107.784 511.549C107.842 511.628 107.447 512.413 107.406 512.413C107.406 512.412 107.407 512.411 107.407 512.411ZM72.1514 512.015C72.1473 511.983 71.9823 511.953 71.9783 511.985C71.889 512.751 72.2214 512.809 72.1514 512.015ZM54.5856 510.674C54.5765 510.596 54.1935 510.52 54.181 510.592C53.9812 512.034 54.7555 512.186 54.5856 510.674ZM83.2666 510.488C83.4467 509.827 83.6621 509.76 83.8057 510.592C83.6267 510.544 83.4465 510.533 83.2666 510.488Z" fill="#8AFF80"/>
<path d="M917.237 507.826C917.841 507.446 918.633 507.218 919.235 507.181C919.423 507.168 919.328 507.476 919.458 507.483C919.713 507.501 919.95 507.28 920.201 507.327C920.285 507.345 920.181 507.838 920.268 507.849C920.748 507.914 921.201 507.668 921.686 507.643C924.077 507.548 926.427 507.382 928.847 507.35C929.645 507.335 930.615 507.883 931.439 507.511C931.535 507.466 931.478 506.821 931.496 506.765C931.783 505.908 931.688 507.236 931.875 507.394C932.619 508.015 933.447 508.029 934.163 507.712C934.467 507.575 934.162 506.233 934.469 506.975C934.49 507.025 934.413 507.762 934.496 507.835C934.686 507.998 935.045 507.845 935.192 507.894C935.475 507.994 935.522 507.985 935.789 507.979C936.155 507.976 936.59 508.331 936.983 508.143C937.067 508.101 936.956 507.33 937.09 507.191C937.223 507.052 937.577 507.099 937.696 507.279C937.816 507.458 937.765 508.075 937.786 508.215C937.96 509.4 938.369 507.736 938.422 507.692C939.382 506.956 940.205 507.884 941.107 507.87C941.786 507.856 942.511 507.538 943.158 507.576C943.163 507.576 943.169 507.576 943.174 507.577C943.95 507.632 944.607 508.067 945.361 507.993C945.44 507.987 945.347 507.044 945.444 507.033C946.476 506.926 947.501 507.033 948.528 507.673C948.631 507.738 948.499 508.563 948.602 508.677C949.232 509.359 950.229 510.987 950.604 507.402C951.031 507.545 951.549 507.693 951.931 508.417C952.177 508.883 951.938 509.777 952.241 509.397C952.309 509.312 952.22 508.527 952.322 508.46C952.753 508.176 953.224 508.433 953.65 508.033C953.737 507.949 953.713 507.249 953.738 507.123C953.944 506.104 954.288 507.795 954.363 507.918C954.933 508.836 955.35 508.48 955.881 508.507C956.004 508.513 955.859 507.576 955.977 507.549C956.593 507.421 957.23 507.51 957.833 507.931C957.967 508.026 957.844 508.818 957.908 508.905C958.19 509.274 958.253 507.778 958.524 508.105C958.581 508.172 958.549 508.849 958.559 508.924C958.722 510.093 958.864 508.439 958.906 508.404C959.436 507.912 959.775 509.638 960.288 509.398C960.349 509.368 960.211 508.514 960.383 508.481C961.531 508.26 962.746 508.513 963.882 509.199C964.059 509.305 963.933 509.935 963.944 510.013C964.125 511.231 964.242 509.602 964.3 509.542C964.754 509.107 965.179 510.47 965.488 508.544C967.413 509.236 969.329 508.211 971.238 509.921C971.262 509.941 971.218 510.715 971.267 510.751C971.85 511.19 971.738 509.985 972.124 508.528C972.221 508.163 972.517 509.934 972.543 510.063C972.638 510.54 972.539 511.683 972.571 511.775C972.835 512.499 972.792 508.722 973.148 508.729C973.16 508.736 973.113 509.428 973.143 509.498C973.236 509.716 973.328 509.442 973.419 509.681C973.627 510.237 973.701 512.059 974.019 511.001C974.059 510.864 973.997 508.737 974.315 508.844C974.442 508.889 975.003 508.864 975.161 509.004C975.318 509.144 975.21 509.821 975.221 509.851C975.645 510.754 975.484 511.124 975.696 512.45C975.908 513.769 975.849 510.622 975.936 510.272C976.022 509.923 976.333 510.664 976.409 510.92C976.485 511.176 976.39 511.603 976.458 511.748C976.908 512.693 976.655 510.196 976.803 509.701C977.153 508.535 977.425 510.853 977.744 511.078C977.831 511.14 977.76 510.615 977.837 510.567C978.142 510.384 978.326 511.1 978.673 510.449C978.729 510.342 979.01 508.976 979.192 509.985C979.217 510.13 979.144 510.697 979.274 510.825C979.468 511.018 979.818 511.143 980.027 510.956C980.181 510.818 980.005 509.888 980.199 510.179C980.285 510.309 980.125 510.85 980.287 511.048C980.448 511.245 980.86 511.224 981.017 511.206C981.173 511.188 981.088 510.489 981.1 510.442C981.177 510.174 981.477 509.843 981.504 509.845C982.842 509.79 984.077 510.958 985.38 510.595C985.482 510.568 985.414 509.859 985.43 509.848C985.78 509.558 985.504 511.434 985.748 512.063C985.713 510.63 985.857 510.891 986.104 510.738C986.223 510.662 986.158 510.11 986.169 510.053C986.345 509.219 986.468 510.304 986.5 510.524C986.616 511.338 986.743 510.381 986.823 510.923C986.902 511.461 986.72 512.257 986.956 512.246C987.022 511.741 986.847 510.415 987.026 510.203C987.704 509.409 988.969 510.468 989.514 510.577C990.057 510.69 990.233 510.602 990.55 510.783C991.122 511.108 990.912 510.163 991.268 509.744C991.624 509.326 991.451 511.619 991.502 512.114C991.552 512.607 991.607 512.099 991.67 512.37C991.732 512.64 991.597 512.977 991.744 513.077C991.891 513.175 992.292 512.299 992.344 511.789C992.454 510.707 992.273 509.568 992.661 509.977C992.684 510.001 992.611 510.595 992.697 510.657C993.376 511.125 994.081 511.161 994.76 511.561C994.853 511.616 994.769 512.261 994.824 512.3C995.389 512.709 995.187 511.624 995.497 510.433C995.427 512.025 995.599 512.999 996.028 513.001C996.286 513.004 996.241 512.315 996.408 511.831C996.458 511.686 996.641 512.156 996.674 511.835C996.783 510.784 996.611 509.605 997.053 510.085C997.073 510.107 997.011 510.678 997.078 510.714C997.511 510.948 997.563 509.86 998.032 509.746C998.399 509.658 999.052 510.33 999.47 510.443C999.462 512.135 999.857 511.744 1000.02 510.593C1000.29 510.646 1000.58 510.588 1000.84 510.751C1000.93 510.807 1000.87 511.284 1000.89 511.336C1001.06 512.147 1001.18 511.042 1001.24 511C1001.87 510.596 1002.39 511.424 1003 510.64C1003.02 510.612 1003.05 509.507 1003.21 510.319C1003.22 510.375 1003.02 510.873 1003.31 510.918C1003.59 510.964 1004.13 511.553 1004.53 511.058C1004.62 510.937 1004.87 510.075 1005.06 510.758C1005.09 510.851 1005.06 511.156 1005.1 511.327C1005.22 511.87 1005.28 510.796 1005.42 511.709C1005.57 512.622 1005.86 513.288 1006.26 512.662C1006.27 512.644 1006.37 511.808 1006.49 511.823C1006.69 511.845 1006.98 512.018 1007.19 512.012C1007.29 512.009 1007.22 511.5 1007.24 511.491C1007.91 511.215 1008.39 511.672 1009.12 511.862C1009.25 511.896 1009.63 511.239 1009.88 511.762C1010.17 512.329 1009.88 514.69 1010.52 514.099C1010.78 513.855 1011.11 510.94 1011.58 512.442C1012.49 512.072 1013.33 512.8 1014.24 512.288C1014.28 512.266 1014.41 511.515 1014.51 511.527C1014.65 511.546 1014.73 511.894 1014.83 511.917C1015.26 512.021 1015.65 511.73 1016.06 511.779C1016.22 511.796 1016.17 512.141 1016.35 512.159C1016.54 512.176 1016.66 511.729 1016.92 511.945C1017.11 512.111 1017.3 513.009 1017.55 513.103C1017.56 512.222 1017.74 512.238 1018.05 512.009C1018.11 511.964 1018.04 511.663 1018.07 511.626C1018.18 511.473 1018.29 511.723 1018.4 511.556C1018.43 511.516 1018.43 511.224 1018.45 511.175C1018.63 510.752 1018.94 511.414 1018.99 511.525C1019.19 511.954 1019.28 511.582 1019.43 511.751C1019.59 511.917 1019.36 512.124 1019.54 512.224C1019.91 512.428 1020.38 512.374 1020.76 512.382C1020.91 512.384 1020.8 512.024 1020.83 512.016C1021.14 511.927 1021.45 512.299 1021.62 511.602C1021.84 513.402 1021.81 511.428 1022.25 511.793C1022.29 511.822 1022.33 512.652 1022.2 512.779C1022.06 512.906 1021.86 512.648 1021.67 512.848C1021.63 512.893 1021.38 513.708 1021.34 513.761C1021.07 514.165 1021.04 512.866 1021.02 512.794C1020.86 512.023 1020.55 512.913 1020.47 512.981C1020.1 513.28 1019.78 513.104 1019.47 513.325C1019.27 513.469 1019.25 514.378 1019.09 514.363C1018.56 514.318 1018.38 513.014 1017.88 514.183C1017.77 514.434 1017.88 515.467 1017.49 514.68C1017.47 514.632 1017.18 513.892 1017.02 514.385C1017 514.447 1017 514.757 1016.97 514.785C1016.79 514.969 1016.67 514.731 1016.47 514.867C1016.27 515.003 1016.03 515.206 1015.8 515.117C1015.66 515.065 1015.49 514.478 1015.42 514.333C1015.24 513.917 1015.04 514.633 1014.92 514.119C1014.81 513.598 1015.03 512.795 1014.73 512.459C1014.72 513.317 1014.69 514.199 1014.68 515.064C1014.01 515.09 1013.36 514.854 1012.69 514.94C1012.61 514.952 1012.69 515.432 1012.6 515.458C1012.23 515.569 1011.9 515.244 1011.52 515.415C1011.22 515.55 1010.89 516.114 1010.57 516.283C1010.38 515.213 1009.91 515.616 1009.58 515.543C1009.46 515.517 1009.47 515.219 1009.38 515.127C1009.06 514.787 1009.21 515.768 1009.13 515.931C1008.75 516.634 1008.72 514.376 1008.28 514.451C1008.26 514.452 1007.97 515.694 1007.93 515.775C1007.68 516.295 1007.89 515.351 1007.73 515.271C1007.45 515.124 1007.25 514.836 1006.91 515.224C1006.82 515.337 1006.58 516.142 1006.39 515.546C1006.37 515.468 1006.38 515.048 1006.36 515.025C1006 514.635 1005.99 515.958 1005.78 516.427C1005.57 516.898 1005.25 516.001 1005.19 515.736C1005.01 515.054 1005.32 515.432 1005.33 515.363C1005.43 514.55 1005.2 514.701 1005.02 514.642C1005 513.319 1004.74 513.404 1004.84 514.585C1004.85 514.713 1004.99 514.583 1005.02 514.642C1004.86 515.947 1004.59 516.146 1004.29 514.933C1004.14 514.363 1004.28 513.683 1003.85 513.945C1003.65 514.064 1003.73 514.994 1003.55 515.259C1003.16 515.868 1002.64 515.018 1002.24 515.178C1002.09 515.237 1002.23 515.754 1002.13 515.813C1001.86 515.974 1001.63 515.592 1001.36 515.812C1001.33 515.833 1001.39 516.386 1001.31 516.399C1000.67 516.511 1000.12 516.188 999.459 516.219C999.139 516.235 998.567 516.593 998.235 516.552C997.66 516.485 996.953 515.661 996.461 515.897C996.141 516.05 996.211 516.649 996.074 517.069C995.809 517.888 995.34 516.486 995.277 516.263C995.275 516.256 995.551 516.097 995.404 515.792C995.318 515.145 995.28 516.26 995.277 516.263C995.236 516.122 994.685 516.012 994.576 516.136C994.516 516.203 994.55 516.785 994.519 516.81C993.782 517.379 993.045 517.588 992.298 517.356C992.285 517.345 992.304 516.672 992.273 516.653C991.841 516.378 991.564 517.218 991.208 517.738C990.851 518.256 990.568 518.115 990.357 516.947C990.088 517.111 989.702 516.609 989.48 516.299C989.258 515.989 989.227 517.346 989.208 517.374C988.598 518.271 988.246 517.516 987.614 517.427C987.313 517.384 986.717 517.618 986.391 517.79C986.134 517.928 985.979 517.608 985.742 517.832C985.71 517.862 985.742 518.486 985.732 518.511C985.468 519.278 985.595 517.737 985.54 517.467C985.342 516.482 985.22 515.952 984.881 516.438C984.803 516.547 984.575 518.785 984.433 518.926C984.248 519.104 984.318 518.299 984.124 518.505C984.107 518.522 984.111 519.016 983.991 519.002C983.435 518.944 982.83 518.69 982.253 518.774C982.174 518.784 982.275 519.576 982.161 519.604C981.626 519.734 981.04 519.744 980.519 519.397C980.391 519.309 980.472 518.737 980.444 518.57C980.273 517.558 980.031 519.054 979.991 519.086C979.037 519.86 978.307 518.542 977.335 519.243C977.282 519.282 976.875 520.938 976.693 519.548C976.681 519.456 976.501 518.028 976.342 519.018C976.332 519.081 976.444 519.815 976.249 519.75C976.053 519.685 975.739 520.199 975.47 519.395C975.385 519.143 975.184 517.705 974.93 518.87C974.914 518.949 974.522 521.587 974.382 519.788C974.359 519.492 974.383 517.577 974.08 518.572C974.022 518.765 974.127 519.187 973.975 519.462C973.741 519.886 973.432 519.385 973.145 520.258C973.095 520.412 972.882 521.735 972.711 520.749C972.684 520.594 972.735 519.946 972.644 519.878C972.215 519.552 971.765 520.007 971.329 519.576C971.175 519.425 971.254 518.369 971.093 518.092C970.932 517.816 970.608 517.554 970.439 518.042C970.271 518.532 970.455 520.211 970.202 520.357C969.105 520.998 968.018 520.051 966.922 519.943C966.76 519.927 966.894 520.536 966.655 520.558C965.772 520.638 964.248 521.284 963.481 519.984C962.868 518.94 963.64 518.11 963.171 517.689C962.945 517.487 962.7 519.525 962.645 519.591C962.111 520.258 961.74 519.367 961.26 519.657C961.161 519.717 961.258 520.543 961.174 520.585C960.885 520.738 960.582 520.377 960.306 520.452C960.183 520.488 960.205 521.122 960.092 521.077C959.819 520.975 959.579 520.715 959.313 520.125C959.289 520.071 959.452 519.275 959.251 519.25C958.925 519.213 958.52 518.631 958.145 519.248C958.034 519.434 958.029 520.896 957.79 519.892C957.74 519.682 957.804 517.925 957.525 519.448C957.479 519.7 957.011 521.762 956.781 520.445C956.72 520.099 956.566 518.66 956.432 518.889C956.414 518.926 956.486 519.712 956.375 519.792C955.985 520.057 955.575 519.981 955.173 520.236C955.066 520.306 955.226 521.121 955.066 521.199C954.627 521.415 954.078 521.218 953.648 520.969C953.49 520.875 953.599 520.193 953.588 520.119C953.403 518.918 953.293 520.545 953.231 520.641C952.849 521.216 952.557 520.456 952.205 520.664C952.107 520.719 952.176 521.495 952.157 521.564C951.956 522.245 952.106 520.847 951.979 520.695C951.622 520.265 951.225 520.332 950.865 520.436C950.732 520.475 950.881 521.376 950.762 521.401C950.059 521.566 949.328 521.489 948.642 520.997C948.513 520.902 948.594 520.204 948.567 520.045C948.382 518.933 948.11 520.455 948.047 520.6C947.763 521.264 947.652 520.648 947.401 520.765C946.173 521.347 944.658 520.944 943.499 520.692C943.383 520.667 943.27 520.64 943.158 520.612C941.808 520.267 940.707 519.684 939.377 519.777C939.285 519.782 939.378 520.705 939.299 520.721C938.28 520.881 937.278 520.445 936.257 520.597C936.173 520.607 936.294 521.466 936.159 521.51C935.884 521.605 935.534 521.513 935.256 521.21C935.12 521.064 935.302 520.372 935.165 520.24C934.847 519.934 934.505 519.835 934.178 519.924C934.038 519.963 934.248 520.831 934.067 520.814C932.834 520.721 931.623 520.608 930.376 519.362C930.291 519.275 930.216 517.693 930.034 517.966C930.02 518.397 930.021 518.907 930.015 519.368C928.22 519.255 926.442 518.317 924.642 517.79C924.566 517.767 924.697 518.488 924.55 518.443C923.699 518.192 922.873 518.077 922.003 517.207C921.917 517.122 921.961 516.088 921.707 516.182C921.662 516.2 921.279 516.236 921.18 516.423C921.166 516.451 921.236 516.939 921.113 516.913C920.395 516.754 919.643 516.384 918.927 515.907C918.811 515.83 918.934 515.45 918.852 515.394C918.268 515.016 917.632 515.113 917.074 514.623C916.701 514.305 916.839 513.748 916.641 513.144C916.612 513.06 916.381 513.017 916.369 512.696C916.338 511.891 916.45 510.994 916.405 510.134C916.397 509.992 916.21 510.122 916.21 509.965C916.21 509.965 916.21 509.965 916.21 509.965C916.21 509.919 916.227 509.848 916.268 509.736C916.281 509.703 916.506 509.49 916.561 509.316C916.6 509.196 916.53 508.886 916.609 508.718C916.687 508.548 916.774 508.802 916.904 508.586C917.034 508.366 916.977 507.99 917.237 507.826ZM988.48 514.902C988.275 514.251 988.244 516.661 988.467 516.075C988.478 516.043 988.491 514.934 988.48 514.902ZM1013.36 513.659C1013.09 512.969 1012.91 514.01 1013.1 514.543C1013.29 515.07 1013.44 513.866 1013.36 513.659ZM1016.15 513.067C1015.84 512.561 1015.79 514.664 1016.12 514.218C1016.14 514.193 1016.17 513.096 1016.15 513.067ZM917.561 513.084C917.558 513.066 917.392 513.032 917.388 513.048C917.3 513.442 917.632 513.525 917.561 513.084ZM1018.92 512.508C1018.82 512.25 1018.54 512.555 1018.66 512.877C1018.76 513.135 1019.04 512.827 1018.92 512.508ZM977.753 512.371C977.75 512.332 977.63 512.296 977.633 512.52C977.641 513.239 977.807 513.034 977.753 512.371ZM1023.62 512.411C1022.92 512.372 1022.5 510.971 1023.26 511.154C1023.4 511.185 1022.96 511.58 1023.14 511.706C1023.46 511.928 1023.67 511.096 1023.99 511.549C1024.05 511.628 1023.66 512.413 1023.62 512.413C1023.62 512.412 1023.62 512.411 1023.62 512.411ZM988.362 512.015C988.358 511.983 988.193 511.953 988.189 511.985C988.099 512.751 988.432 512.809 988.362 512.015ZM970.796 510.674C970.787 510.596 970.404 510.52 970.391 510.592C970.192 512.034 970.966 512.186 970.796 510.674ZM999.477 510.488C999.657 509.827 999.873 509.76 1000.02 510.592C999.837 510.544 999.657 510.533 999.477 510.488Z" fill="#8AFF80"/>
<path d="M507.826 508.663C507.446 506.7 507.218 504.127 507.181 502.171C507.168 501.558 507.476 501.869 507.483 501.446C507.501 500.618 507.28 499.847 507.327 499.029C507.345 498.758 507.838 499.096 507.849 498.812C507.914 497.254 507.668 495.781 507.643 494.204C507.548 486.434 507.382 478.796 507.35 470.931C507.335 468.338 507.883 465.186 507.511 462.507C507.466 462.194 506.821 462.381 506.765 462.321C505.908 461.388 507.236 461.698 507.394 461.089C508.015 458.671 508.029 455.982 507.712 453.655C507.575 452.665 506.233 453.658 506.975 452.661C507.025 452.592 507.762 452.843 507.835 452.571C507.998 451.955 507.845 450.787 507.894 450.31C507.994 449.39 507.985 449.238 507.979 448.368C507.976 447.179 508.331 445.765 508.143 444.489C508.101 444.217 507.33 444.577 507.191 444.143C507.052 443.708 507.099 442.558 507.279 442.17C507.458 441.783 508.075 441.948 508.215 441.879C509.4 441.314 507.736 439.984 507.692 439.813C506.956 436.692 507.884 434.016 507.87 431.087C507.856 428.881 507.538 426.524 507.576 424.421C507.576 424.404 507.576 424.386 507.577 424.369C507.632 421.848 508.067 419.711 507.993 417.262C507.987 417.004 507.044 417.307 507.033 416.991C506.926 413.637 507.033 410.306 507.673 406.967C507.738 406.632 508.563 407.064 508.677 406.729C509.359 404.68 510.987 401.439 507.402 400.222C507.545 398.835 507.693 397.15 508.417 395.909C508.883 395.108 509.777 395.886 509.397 394.902C509.312 394.681 508.527 394.969 508.46 394.636C508.176 393.236 508.433 391.706 508.033 390.321C507.949 390.04 507.249 390.116 507.123 390.037C506.104 389.366 507.795 388.249 507.918 388.005C508.836 386.151 508.48 384.797 508.507 383.07C508.513 382.669 507.576 383.143 507.549 382.758C507.421 380.757 507.51 378.685 507.931 376.727C508.026 376.291 508.818 376.692 508.905 376.483C509.274 375.565 507.778 375.362 508.105 374.482C508.172 374.296 508.849 374.4 508.924 374.367C510.093 373.837 508.439 373.376 508.404 373.24C507.912 371.516 509.638 370.414 509.398 368.749C509.368 368.549 508.514 368.999 508.481 368.439C508.26 364.707 508.513 360.761 509.199 357.068C509.305 356.493 509.935 356.903 510.013 356.867C511.231 356.278 509.602 355.897 509.542 355.71C509.107 354.233 510.47 352.853 508.544 351.849C509.236 345.593 508.211 339.366 509.921 333.162C509.941 333.083 510.715 333.224 510.751 333.067C511.19 331.172 509.985 331.536 508.528 330.282C508.163 329.966 509.934 329.005 510.063 328.92C510.54 328.61 511.683 328.931 511.775 328.828C512.499 327.969 508.722 328.109 508.729 326.952C508.736 326.915 509.428 327.067 509.498 326.97C509.716 326.668 509.442 326.369 509.681 326.074C510.237 325.397 512.059 325.157 511.001 324.124C510.864 323.993 508.737 324.193 508.844 323.159C508.889 322.747 508.864 320.923 509.004 320.411C509.144 319.901 509.821 320.251 509.851 320.215C510.754 318.839 511.124 319.361 512.45 318.671C513.769 317.982 510.622 318.173 510.272 317.892C509.923 317.611 510.664 316.602 510.92 316.354C511.176 316.106 511.603 316.415 511.748 316.195C512.693 314.734 510.196 315.554 509.701 315.073C508.535 313.938 510.853 313.054 511.078 312.015C511.14 311.734 510.615 311.963 510.567 311.713C510.384 310.722 511.1 310.126 510.449 308.998C510.342 308.813 508.976 307.901 509.985 307.311C510.13 307.228 510.697 307.465 510.825 307.043C511.018 306.411 511.143 305.274 510.956 304.596C510.818 304.095 509.888 304.669 510.179 304.038C510.309 303.758 510.85 304.278 511.048 303.751C511.245 303.227 511.224 301.889 511.206 301.379C511.188 300.871 510.489 301.149 510.442 301.108C510.174 300.859 509.843 299.883 509.845 299.797C509.79 295.446 510.958 291.435 510.595 287.199C510.568 286.867 509.859 287.088 509.848 287.037C509.558 285.899 511.434 286.797 512.063 286.002C510.63 286.117 510.891 285.647 510.738 284.846C510.662 284.459 510.11 284.67 510.053 284.635C509.219 284.062 510.304 283.663 510.524 283.56C511.338 283.181 510.381 282.768 510.923 282.51C511.461 282.252 512.257 282.846 512.246 282.077C511.741 281.861 510.415 282.432 510.203 281.848C509.409 279.646 510.468 275.535 510.577 273.765C510.69 271.998 510.602 271.427 510.783 270.397C511.108 268.537 510.163 269.219 509.744 268.064C509.326 266.906 511.619 267.469 512.114 267.302C512.607 267.139 512.099 266.96 512.37 266.757C512.64 266.554 512.977 266.993 513.077 266.516C513.175 266.039 512.299 264.736 511.789 264.567C510.707 264.209 509.568 264.797 509.977 263.535C510.001 263.462 510.595 263.698 510.657 263.42C511.125 261.213 511.161 258.92 511.561 256.716C511.616 256.412 512.261 256.683 512.3 256.507C512.709 254.67 511.624 255.327 510.433 254.319C512.025 254.546 512.999 253.989 513.001 252.594C513.004 251.756 512.315 251.9 511.831 251.358C511.686 251.195 512.156 250.602 511.835 250.495C510.784 250.14 509.605 250.699 510.085 249.261C510.107 249.198 510.678 249.399 510.714 249.181C510.948 247.772 509.86 247.604 509.746 246.081C509.658 244.887 510.33 242.764 510.443 241.405C512.135 241.434 511.744 240.15 510.593 239.629C510.646 238.747 510.588 237.794 510.751 236.942C510.807 236.648 511.284 236.841 511.336 236.804C512.147 236.237 511.042 235.853 511 235.663C510.596 233.599 511.424 231.918 510.64 229.948C510.612 229.879 509.507 229.765 510.319 229.239C510.375 229.205 510.873 229.855 510.918 228.929C510.964 228.002 511.553 226.256 511.058 224.969C510.937 224.658 510.075 223.871 510.758 223.239C510.851 223.154 511.156 223.247 511.327 223.125C511.87 222.732 510.796 222.518 511.709 222.056C512.622 221.594 513.288 220.634 512.662 219.336C512.644 219.295 511.808 218.988 511.823 218.58C511.845 217.929 512.018 217.004 512.012 216.324C512.009 215.999 511.5 216.207 511.491 216.151C511.215 213.961 511.672 212.403 511.862 210.058C511.896 209.628 511.239 208.393 511.762 207.561C512.329 206.647 514.69 207.586 514.099 205.485C513.855 204.638 510.94 203.565 512.442 202.043C512.072 199.09 512.8 196.359 512.288 193.398C512.266 193.265 511.515 192.844 511.527 192.531C511.546 192.066 511.894 191.811 511.917 191.479C512.021 190.088 511.73 188.816 511.779 187.475C511.796 186.966 512.141 187.144 512.159 186.537C512.176 185.93 511.729 185.526 511.945 184.704C512.111 184.083 513.009 183.462 513.103 182.638C512.222 182.606 512.238 182.04 512.009 181.034C511.964 180.841 511.663 181.048 511.626 180.956C511.473 180.584 511.723 180.24 511.556 179.886C511.516 179.8 511.224 179.796 511.175 179.726C510.752 179.128 511.414 178.143 511.525 177.974C511.954 177.325 511.582 177.022 511.751 176.525C511.917 176.029 512.124 176.771 512.224 176.191C512.428 174.989 512.374 173.444 512.382 172.223C512.384 171.736 512.024 172.069 512.016 171.999C511.927 170.992 512.299 169.973 511.602 169.414C513.402 168.716 511.428 168.807 511.793 167.367C511.822 167.254 512.652 167.109 512.779 167.545C512.906 167.98 512.648 168.64 512.848 169.245C512.893 169.388 513.708 170.207 513.761 170.319C514.165 171.195 512.866 171.319 512.794 171.365C512.023 171.891 512.913 172.892 512.981 173.156C513.28 174.363 513.104 175.388 513.325 176.397C513.469 177.057 514.378 177.121 514.363 177.64C514.318 179.362 513.014 179.964 514.183 181.587C514.434 181.935 515.467 181.589 514.68 182.837C514.632 182.915 513.892 183.841 514.385 184.376C514.447 184.443 514.757 184.441 514.785 184.53C514.969 185.124 514.731 185.52 514.867 186.167C515.003 186.814 515.206 187.592 515.117 188.33C515.065 188.776 514.478 189.347 514.333 189.56C513.917 190.162 514.633 190.807 514.119 191.18C513.598 191.555 512.795 190.821 512.459 191.806C513.317 191.843 514.199 191.927 515.064 191.985C515.09 194.146 514.854 196.271 514.94 198.439C514.952 198.707 515.432 198.433 515.458 198.721C515.569 199.936 515.244 200.998 515.415 202.258C515.55 203.234 516.114 204.303 516.283 205.323C515.213 205.947 515.616 207.46 515.543 208.56C515.517 208.945 515.219 208.92 515.127 209.194C514.787 210.227 515.768 209.743 515.931 210.026C516.634 211.242 514.376 211.346 514.451 212.779C514.452 212.855 515.694 213.783 515.775 213.911C516.295 214.723 515.351 214.045 515.271 214.554C515.124 215.482 514.836 216.127 515.224 217.216C515.337 217.533 516.142 218.295 515.546 218.912C515.468 218.993 515.048 218.948 515.025 219.013C514.635 220.195 515.958 220.226 516.427 220.901C516.898 221.577 516.001 222.62 515.736 222.832C515.054 223.388 515.432 222.407 515.363 222.377C514.55 222.023 514.701 222.784 514.642 223.366C513.319 223.45 513.404 224.263 514.585 223.968C514.713 223.935 514.583 223.482 514.642 223.366C515.947 223.876 516.146 224.769 514.933 225.756C514.363 226.218 513.683 225.782 513.945 227.185C514.064 227.822 514.994 227.576 515.259 228.138C515.868 229.422 515.018 231.09 515.178 232.414C515.237 232.894 515.754 232.426 515.813 232.755C515.974 233.626 515.592 234.395 515.812 235.27C515.833 235.349 516.386 235.155 516.399 235.427C516.511 237.491 516.188 239.287 516.219 241.441C516.235 242.482 516.593 244.343 516.552 245.421C516.485 247.289 515.661 249.588 515.897 251.184C516.05 252.226 516.649 251.997 517.069 252.443C517.888 253.304 516.486 254.828 516.263 255.033C516.256 255.039 516.097 254.143 515.792 254.621C515.145 254.899 516.26 255.023 516.263 255.033C516.122 255.168 516.012 256.958 516.136 257.313C516.203 257.506 516.785 257.398 516.81 257.499C517.379 259.892 517.588 262.289 517.356 264.716C517.345 264.759 516.672 264.695 516.653 264.795C516.378 266.2 517.218 267.1 517.738 268.259C518.256 269.418 518.115 270.337 516.947 271.023C517.111 271.897 516.609 273.151 516.299 273.873C515.989 274.595 517.346 274.695 517.374 274.759C518.271 276.74 517.516 277.885 517.427 279.94C517.384 280.917 517.618 282.855 517.79 283.913C517.928 284.749 517.608 285.253 517.832 286.023C517.862 286.127 518.486 286.022 518.511 286.054C519.278 286.914 517.737 286.5 517.467 286.678C516.482 287.321 515.952 287.719 516.438 288.82C516.547 289.074 518.785 289.814 518.926 290.277C519.104 290.879 518.299 290.651 518.505 291.282C518.522 291.336 519.016 291.324 519.002 291.713C518.944 293.519 518.69 295.487 518.774 297.363C518.784 297.62 519.576 297.291 519.604 297.661C519.734 299.399 519.744 301.303 519.397 302.996C519.309 303.413 518.737 303.152 518.57 303.242C517.558 303.797 519.054 304.585 519.086 304.715C519.86 307.814 518.542 310.186 519.243 313.345C519.282 313.517 520.938 314.84 519.548 315.431C519.456 315.471 518.028 316.055 519.018 316.572C519.081 316.604 519.815 316.24 519.75 316.875C519.685 317.511 520.199 318.533 519.395 319.406C519.143 319.683 517.705 320.336 518.87 321.161C518.949 321.215 521.587 322.488 519.788 322.942C519.492 323.016 517.577 322.939 518.572 323.923C518.765 324.111 519.187 323.77 519.462 324.265C519.886 325.025 519.385 326.03 520.258 326.964C520.412 327.126 521.735 327.819 520.749 328.375C520.594 328.462 519.946 328.296 519.878 328.59C519.552 329.985 520.007 331.447 519.576 332.864C519.425 333.365 518.369 333.109 518.092 333.632C517.816 334.155 517.554 335.209 518.042 335.757C518.532 336.304 520.211 335.706 520.357 336.526C520.998 340.093 520.051 343.626 519.943 347.187C519.927 347.715 520.536 347.277 520.558 348.055C520.638 350.925 521.284 355.879 519.984 358.369C518.94 360.364 518.11 357.854 517.689 359.378C517.487 360.114 519.525 360.91 519.591 361.087C520.258 362.822 519.367 364.028 519.657 365.589C519.717 365.912 520.543 365.596 520.585 365.87C520.738 366.807 520.377 367.793 520.452 368.688C520.488 369.09 521.122 369.016 521.077 369.386C520.975 370.271 520.715 371.053 520.125 371.916C520.071 371.994 519.275 371.464 519.25 372.119C519.213 373.178 518.631 374.493 519.248 375.712C519.434 376.074 520.896 376.088 519.892 376.866C519.682 377.029 517.925 376.821 519.448 377.726C519.7 377.878 521.762 379.4 520.445 380.146C520.099 380.343 518.66 380.846 518.889 381.281C518.926 381.34 519.712 381.104 519.792 381.464C520.057 382.734 519.981 384.065 520.236 385.37C520.306 385.719 521.121 385.2 521.199 385.719C521.415 387.147 521.218 388.93 520.969 390.327C520.875 390.842 520.193 390.486 520.119 390.523C518.918 391.126 520.545 391.482 520.641 391.682C521.216 392.925 520.456 393.872 520.664 395.019C520.719 395.335 521.495 395.111 521.564 395.174C522.245 395.827 520.847 395.34 520.695 395.754C520.265 396.912 520.332 398.203 520.436 399.374C520.475 399.804 521.376 399.32 521.401 399.706C521.566 401.991 521.489 404.367 520.997 406.597C520.902 407.017 520.204 406.752 520.045 406.84C518.933 407.443 520.455 408.327 520.6 408.53C521.264 409.455 520.648 409.814 520.765 410.631C521.347 414.621 520.944 419.547 520.692 423.313C520.667 423.689 520.64 424.058 520.612 424.421C520.267 428.808 519.684 432.387 519.777 436.709C519.782 437.006 520.705 436.706 520.721 436.963C520.881 440.273 520.445 443.532 520.597 446.849C520.607 447.121 521.466 446.729 521.51 447.166C521.605 448.062 521.513 449.197 521.21 450.103C521.064 450.545 520.372 449.952 520.24 450.397C519.934 451.433 519.835 452.543 519.924 453.607C519.963 454.06 520.831 453.377 520.814 453.965C520.721 457.974 520.608 461.911 519.362 465.961C519.275 466.239 517.693 466.483 517.966 467.073C518.397 467.118 518.907 467.115 519.368 467.135C519.255 472.97 518.317 478.746 517.79 484.598C517.767 484.845 518.488 484.419 518.443 484.896C518.192 487.661 518.077 490.346 517.207 493.174C517.122 493.454 516.088 493.31 516.182 494.137C516.2 494.283 516.236 495.528 516.423 495.85C516.451 495.894 516.939 495.667 516.913 496.068C516.754 498.4 516.384 500.844 515.907 503.172C515.83 503.548 515.45 503.148 515.394 503.415C515.016 505.314 515.113 507.379 514.623 509.192C514.305 510.407 513.748 509.957 513.144 510.602C513.06 510.694 513.017 511.445 512.696 511.484C511.891 511.584 510.994 511.22 510.134 511.369C509.992 511.394 510.122 512 509.965 512C509.965 512 509.965 512 509.965 512C509.919 512 509.848 511.947 509.736 511.812C509.703 511.77 509.49 511.04 509.316 510.86C509.196 510.735 508.886 510.961 508.718 510.705C508.548 510.45 508.802 510.169 508.586 509.746C508.366 509.322 507.99 509.509 507.826 508.663ZM514.902 277.123C514.251 277.791 516.661 277.89 516.075 277.167C516.043 277.132 514.934 277.089 514.902 277.123ZM513.659 196.259C512.969 197.133 514.01 197.731 514.543 197.114C515.07 196.498 513.866 195.993 513.659 196.259ZM513.067 187.199C512.561 188.22 514.664 188.381 514.218 187.287C514.193 187.223 513.096 187.139 513.067 187.199ZM513.084 507.61C513.066 507.619 513.032 508.16 513.048 508.173C513.442 508.461 513.525 507.38 513.084 507.61ZM512.508 178.208C512.25 178.526 512.555 179.444 512.877 179.048C513.135 178.729 512.827 177.811 512.508 178.208ZM512.371 311.987C512.332 311.998 512.296 312.385 512.52 312.377C513.239 312.351 513.034 311.812 512.371 311.987ZM512.411 162.926C512.372 165.184 510.971 166.553 511.154 164.094C511.185 163.649 511.58 165.054 511.706 164.487C511.928 163.45 511.096 162.762 511.549 161.704C511.628 161.512 512.413 162.798 512.413 162.93C512.412 162.929 512.411 162.928 512.411 162.926ZM512.015 277.508C511.983 277.521 511.953 278.058 511.985 278.07C512.751 278.361 512.809 277.28 512.015 277.508ZM510.674 334.597C510.596 334.626 510.52 335.871 510.592 335.912C512.034 336.561 512.186 334.044 510.674 334.597ZM510.488 241.384C509.827 240.798 509.76 240.098 510.592 239.632C510.544 240.213 510.533 240.799 510.488 241.384Z" fill="#8AFF80"/>
<path d="M514.567 507.826C516.077 507.446 518.056 507.218 519.561 507.181C520.032 507.168 519.793 507.476 520.119 507.483C520.755 507.501 521.348 507.28 521.977 507.327C522.186 507.345 521.926 507.838 522.145 507.849C523.343 507.914 524.476 507.668 525.689 507.643C531.666 507.548 537.541 507.382 543.591 507.35C545.586 507.335 548.011 507.883 550.072 507.511C550.312 507.466 550.169 506.821 550.214 506.765C550.932 505.908 550.694 507.236 551.162 507.394C553.022 508.015 555.091 508.029 556.881 507.712C557.642 507.575 556.879 506.233 557.646 506.975C557.699 507.025 557.506 507.762 557.714 507.835C558.188 507.998 559.087 507.845 559.454 507.894C560.161 507.994 560.278 507.985 560.947 507.979C561.862 507.976 562.95 508.331 563.932 508.143C564.141 508.101 563.864 507.33 564.198 507.191C564.532 507.052 565.417 507.099 565.715 507.279C566.013 507.458 565.886 508.075 565.939 508.215C566.374 509.4 567.397 507.736 567.528 507.692C569.929 506.956 571.988 507.884 574.241 507.87C575.938 507.856 577.751 507.538 579.368 507.576C579.382 507.576 579.395 507.576 579.409 507.577C581.348 507.632 582.991 508.067 584.875 507.993C585.074 507.987 584.841 507.044 585.084 507.033C587.664 506.926 590.226 507.033 592.795 507.673C593.052 507.738 592.72 508.563 592.978 508.677C594.554 509.359 597.047 510.987 597.983 507.402C599.05 507.545 600.346 507.693 601.301 508.417C601.917 508.883 601.319 509.777 602.075 509.397C602.246 509.312 602.024 508.527 602.28 508.46C603.357 508.176 604.533 508.433 605.599 508.033C605.816 507.949 605.757 507.249 605.818 507.123C606.334 506.104 607.193 507.795 607.38 507.918C608.807 508.836 609.848 508.48 611.177 508.507C611.485 508.513 611.121 507.576 611.417 507.549C612.956 507.421 614.55 507.51 616.056 507.931C616.392 508.026 616.083 508.818 616.244 508.905C616.95 509.274 617.106 507.778 617.783 508.105C617.926 508.172 617.846 508.849 617.872 508.924C618.279 510.093 618.634 508.439 618.738 508.404C620.065 507.912 620.912 509.638 622.193 509.398C622.347 509.368 622.001 508.514 622.432 508.481C625.302 508.26 628.338 508.513 631.179 509.199C631.621 509.305 631.305 509.935 631.333 510.013C631.786 511.231 632.079 509.602 632.223 509.542C633.36 509.107 634.421 510.47 635.193 508.544C640.005 509.236 644.796 508.211 649.568 509.921C649.629 509.941 649.52 510.715 649.641 510.751C651.099 511.19 650.819 509.985 651.783 508.528C652.026 508.163 652.765 509.934 652.831 510.063C653.069 510.54 652.822 511.683 652.902 511.775C653.562 512.499 653.454 508.722 654.345 508.729C654.373 508.736 654.256 509.428 654.331 509.498C654.563 509.716 654.793 509.442 655.02 509.681C655.54 510.237 655.726 512.059 656.52 511.001C656.621 510.864 656.467 508.737 657.262 508.844C657.579 508.889 658.983 508.864 659.376 509.004C659.769 509.144 659.499 509.821 659.527 509.851C660.585 510.754 660.184 511.124 660.714 512.45C661.244 513.769 661.097 510.622 661.314 510.272C661.53 509.923 662.306 510.664 662.497 510.92C662.687 511.176 662.45 511.603 662.619 511.748C663.743 512.693 663.112 510.196 663.483 509.701C664.356 508.535 665.035 510.853 665.835 511.078C666.051 511.14 665.874 510.615 666.067 510.567C666.829 510.384 667.288 511.1 668.156 510.449C668.298 510.342 668.999 508.976 669.453 509.985C669.517 510.13 669.335 510.697 669.66 510.825C670.145 511.018 671.02 511.143 671.542 510.956C671.927 510.818 671.485 509.888 671.97 510.179C672.186 510.309 671.787 510.85 672.191 511.048C672.594 511.245 673.624 511.224 674.016 511.206C674.407 511.188 674.193 510.489 674.225 510.442C674.416 510.174 675.167 509.843 675.233 509.845C678.58 509.79 681.666 510.958 684.924 510.595C685.18 510.568 685.009 509.859 685.048 509.848C685.924 509.558 685.233 511.434 685.845 512.063C685.756 510.63 686.117 510.891 686.734 510.738C687.031 510.662 686.869 510.11 686.896 510.053C687.337 509.219 687.644 510.304 687.723 510.524C688.015 511.338 688.332 510.381 688.531 510.923C688.729 511.461 688.273 512.257 688.864 512.246C689.03 511.741 688.591 510.415 689.04 510.203C690.734 509.409 693.896 510.468 695.258 510.577C696.617 510.69 697.056 510.602 697.848 510.783C699.279 511.108 698.755 510.163 699.643 509.744C700.534 509.326 700.101 511.619 700.229 512.114C700.355 512.607 700.492 512.099 700.649 512.37C700.804 512.64 700.467 512.977 700.834 513.077C701.2 513.175 702.203 512.299 702.333 511.789C702.608 510.707 702.156 509.568 703.127 509.977C703.183 510.001 703.002 510.595 703.215 510.657C704.913 511.125 706.677 511.161 708.373 511.561C708.606 511.616 708.397 512.261 708.533 512.3C709.946 512.709 709.441 511.624 710.216 510.433C710.042 512.025 710.47 512.999 711.543 513.001C712.188 513.004 712.077 512.315 712.494 511.831C712.619 511.686 713.075 512.156 713.158 511.835C713.43 510.784 713.001 509.605 714.107 510.085C714.155 510.107 714.001 510.678 714.168 510.714C715.252 510.948 715.382 509.86 716.553 509.746C717.471 509.658 719.105 510.33 720.15 510.443C720.128 512.135 721.116 511.744 721.516 510.593C722.195 510.646 722.928 510.588 723.583 510.751C723.809 510.807 723.661 511.284 723.689 511.336C724.126 512.147 724.421 511.042 724.567 511C726.155 510.596 727.448 511.424 728.963 510.64C729.016 510.612 729.104 509.507 729.509 510.319C729.535 510.375 729.034 510.873 729.747 510.918C730.46 510.964 731.803 511.553 732.793 511.058C733.032 510.937 733.638 510.075 734.124 510.758C734.189 510.851 734.118 511.156 734.212 511.327C734.514 511.87 734.679 510.796 735.034 511.709C735.389 512.622 736.128 513.288 737.126 512.662C737.158 512.644 737.394 511.808 737.708 511.823C738.209 511.845 738.92 512.018 739.443 512.012C739.693 512.009 739.533 511.5 739.576 511.491C741.26 511.215 742.459 511.672 744.263 511.862C744.594 511.896 745.544 511.239 746.184 511.762C746.887 512.329 746.165 514.69 747.781 514.099C748.432 513.855 749.257 510.94 750.429 512.442C752.7 512.072 754.801 512.8 757.079 512.288C757.181 512.266 757.505 511.515 757.746 511.527C758.103 511.546 758.299 511.894 758.555 511.917C759.624 512.021 760.603 511.73 761.634 511.779C762.026 511.796 761.889 512.141 762.356 512.159C762.823 512.176 763.134 511.729 763.766 511.945C764.244 512.111 764.722 513.009 765.356 513.103C765.38 512.222 765.815 512.238 766.589 512.009C766.738 511.964 766.579 511.663 766.649 511.626C766.935 511.473 767.2 511.723 767.472 511.556C767.538 511.516 767.542 511.224 767.596 511.175C768.055 510.752 768.813 511.414 768.943 511.525C769.442 511.954 769.675 511.582 770.058 511.751C770.44 511.917 769.868 512.124 770.315 512.224C771.239 512.428 772.427 512.374 773.367 512.382C773.741 512.384 773.486 512.024 773.539 512.016C774.314 511.927 775.098 512.299 775.527 511.602C776.065 513.402 775.995 511.428 777.102 511.793C777.189 511.822 777.3 512.652 776.966 512.779C776.631 512.906 776.123 512.648 775.658 512.848C775.548 512.893 774.918 513.708 774.831 513.761C774.158 514.165 774.062 512.866 774.027 512.794C773.622 512.023 772.852 512.913 772.649 512.981C771.721 513.28 770.933 513.104 770.156 513.325C769.649 513.469 769.599 514.378 769.2 514.363C767.875 514.318 767.412 513.014 766.164 514.183C765.896 514.434 766.162 515.467 765.203 514.68C765.142 514.632 764.43 513.892 764.018 514.385C763.967 514.447 763.968 514.757 763.9 514.785C763.443 514.969 763.139 514.731 762.641 514.867C762.143 515.003 761.545 515.206 760.977 515.117C760.634 515.065 760.195 514.478 760.031 514.333C759.568 513.917 759.072 514.633 758.785 514.119C758.496 513.598 759.061 512.795 758.303 512.459C758.275 513.317 758.21 514.199 758.165 515.064C756.503 515.09 754.868 514.854 753.201 514.94C752.994 514.952 753.206 515.432 752.984 515.458C752.049 515.569 751.233 515.244 750.263 515.415C749.513 515.55 748.69 516.114 747.905 516.283C747.426 515.213 746.261 515.616 745.415 515.543C745.119 515.517 745.139 515.219 744.928 515.127C744.133 514.787 744.506 515.768 744.288 515.931C743.352 516.634 743.272 514.376 742.17 514.451C742.112 514.452 741.398 515.694 741.299 515.775C740.674 516.295 741.196 515.351 740.805 515.271C740.091 515.124 739.595 514.836 738.757 515.224C738.513 515.337 737.927 516.142 737.453 515.546C737.39 515.468 737.425 515.048 737.375 515.025C736.465 514.635 736.442 515.958 735.922 516.427C735.402 516.898 734.6 516.001 734.437 515.736C734.009 515.054 734.764 515.432 734.787 515.363C735.059 514.55 734.474 514.701 734.027 514.642C733.962 513.319 733.336 513.404 733.563 514.585C733.589 514.713 733.937 514.583 734.027 514.642C733.634 515.947 732.947 516.146 732.187 514.933C731.832 514.363 732.168 513.683 731.089 513.945C730.599 514.064 730.788 514.994 730.356 515.259C729.368 515.868 728.084 515.018 727.066 515.178C726.697 515.237 727.057 515.754 726.804 515.813C726.134 515.974 725.543 515.592 724.869 515.812C724.808 515.833 724.957 516.386 724.748 516.399C723.161 516.511 721.779 516.188 720.122 516.219C719.322 516.235 717.89 516.593 717.061 516.552C715.624 516.485 713.855 515.661 712.627 515.897C711.827 516.05 712.002 516.649 711.659 517.069C710.997 517.888 709.825 516.486 709.667 516.263C709.662 516.256 710.351 516.097 709.983 515.792C709.77 515.145 709.675 516.26 709.667 516.263C709.563 516.122 708.187 516.012 707.913 516.136C707.765 516.203 707.848 516.785 707.77 516.81C705.929 517.379 704.085 517.588 702.218 517.356C702.185 517.345 702.235 516.672 702.158 516.653C701.077 516.378 700.385 517.218 699.493 517.738C698.602 518.256 697.895 518.115 697.367 516.947C696.695 517.111 695.73 516.609 695.175 516.299C694.619 515.989 694.542 517.346 694.493 517.374C692.969 518.271 692.089 517.516 690.508 517.427C689.756 517.384 688.265 517.618 687.452 517.79C686.808 517.928 686.421 517.608 685.828 517.832C685.748 517.862 685.829 518.486 685.805 518.511C685.143 519.278 685.461 517.737 685.325 517.467C684.83 516.482 684.524 515.952 683.677 516.438C683.482 516.547 682.913 518.785 682.556 518.926C682.093 519.104 682.268 518.299 681.783 518.505C681.742 518.522 681.751 519.016 681.451 519.002C680.063 518.944 678.548 518.69 677.105 518.774C676.908 518.784 677.161 519.576 676.876 519.604C675.539 519.734 674.074 519.744 672.772 519.397C672.452 519.309 672.653 518.737 672.583 518.57C672.156 517.558 671.55 519.054 671.45 519.086C669.066 519.86 667.242 518.542 664.812 519.243C664.679 519.282 663.661 520.938 663.207 519.548C663.176 519.456 662.727 518.028 662.329 519.018C662.304 519.081 662.585 519.815 662.096 519.75C661.607 519.685 660.821 520.199 660.149 519.395C659.936 519.143 659.434 517.705 658.799 518.87C658.758 518.949 657.778 521.587 657.429 519.788C657.372 519.492 657.432 517.577 656.674 518.572C656.53 518.765 656.792 519.187 656.411 519.462C655.827 519.886 655.054 519.385 654.336 520.258C654.211 520.412 653.678 521.735 653.25 520.749C653.183 520.594 653.31 519.946 653.085 519.878C652.011 519.552 650.887 520.007 649.797 519.576C649.411 519.425 649.609 518.369 649.206 518.092C648.804 517.816 647.993 517.554 647.572 518.042C647.151 518.532 647.611 520.211 646.98 520.357C644.236 520.998 641.519 520.051 638.78 519.943C638.373 519.927 638.71 520.536 638.111 520.558C635.904 520.638 632.093 521.284 630.178 519.984C628.643 518.94 630.574 518.11 629.401 517.689C628.836 517.487 628.223 519.525 628.087 519.591C626.752 520.258 625.825 519.367 624.624 519.657C624.375 519.717 624.619 520.543 624.408 520.585C623.687 520.738 622.929 520.377 622.24 520.452C621.931 520.488 621.987 521.122 621.703 521.077C621.022 520.975 620.421 520.715 619.757 520.125C619.697 520.071 620.104 519.275 619.601 519.25C618.786 519.213 617.774 518.631 616.837 519.248C616.558 519.434 616.548 520.896 615.95 519.892C615.824 519.682 615.984 517.925 615.288 519.448C615.17 519.7 614 521.762 613.426 520.445C613.274 520.099 612.888 518.66 612.553 518.889C612.508 518.926 612.69 519.712 612.412 519.792C611.435 520.057 610.411 519.981 609.408 520.236C609.14 520.306 609.539 521.121 609.139 521.199C608.041 521.415 606.669 521.218 605.595 520.969C605.199 520.875 605.473 520.193 605.444 520.119C604.98 518.918 604.706 520.545 604.553 520.641C603.596 521.216 602.867 520.456 601.986 520.664C601.742 520.719 601.915 521.495 601.866 521.564C601.364 522.245 601.738 520.847 601.42 520.695C600.53 520.265 599.536 520.332 598.636 520.436C598.305 520.475 598.677 521.376 598.38 521.401C596.622 521.566 594.795 521.489 593.079 520.997C592.756 520.902 592.96 520.204 592.892 520.045C592.428 518.933 591.748 520.455 591.592 520.6C590.881 521.264 590.604 520.648 589.976 520.765C586.907 521.347 583.118 520.944 580.221 520.692C579.932 520.667 579.648 520.64 579.368 520.612C575.993 520.267 573.241 519.684 569.916 519.777C569.688 519.782 569.918 520.705 569.721 520.721C567.175 520.881 564.668 520.445 562.116 520.597C561.907 520.607 562.209 521.466 561.873 521.51C561.183 521.605 560.31 521.513 559.613 521.21C559.273 521.064 559.729 520.372 559.387 520.24C558.59 519.934 557.736 519.835 556.918 519.924C556.57 519.963 557.095 520.831 556.642 520.814C553.559 520.721 550.53 520.608 547.414 519.362C547.201 519.275 547.013 517.693 546.559 517.966C546.525 518.397 546.527 518.907 546.512 519.368C542.023 519.255 537.58 518.317 533.078 517.79C532.889 517.767 533.217 518.488 532.849 518.443C530.722 518.192 528.657 518.077 526.482 517.207C526.266 517.122 526.377 516.088 525.741 516.182C525.629 516.2 524.671 516.236 524.423 516.423C524.389 516.451 524.564 516.939 524.255 516.913C522.461 516.754 520.581 516.384 518.791 515.907C518.502 515.83 518.809 515.45 518.604 515.394C517.143 515.016 515.555 515.113 514.16 514.623C513.226 514.305 513.571 513.748 513.075 513.144C513.005 513.06 512.427 513.017 512.397 512.696C512.32 511.891 512.6 510.994 512.485 510.134C512.466 509.992 512 510.122 512 509.965C512 509.965 512 509.965 512 509.965C512 509.919 512.041 509.848 512.145 509.736C512.177 509.703 512.738 509.49 512.877 509.316C512.973 509.196 512.8 508.886 512.996 508.718C513.192 508.548 513.408 508.802 513.734 508.586C514.06 508.366 513.917 507.99 514.567 507.826ZM692.675 514.902C692.161 514.251 692.085 516.661 692.641 516.075C692.668 516.043 692.701 514.934 692.675 514.902ZM754.878 513.659C754.206 512.969 753.746 514.01 754.22 514.543C754.694 515.07 755.082 513.866 754.878 513.659ZM761.847 513.067C761.062 512.561 760.938 514.664 761.779 514.218C761.828 514.193 761.893 513.096 761.847 513.067ZM515.377 513.084C515.37 513.066 514.954 513.032 514.944 513.048C514.723 513.442 515.554 513.525 515.377 513.084ZM768.763 512.508C768.518 512.25 767.812 512.555 768.117 512.877C768.362 513.135 769.069 512.827 768.763 512.508ZM665.856 512.371C665.848 512.332 665.55 512.296 665.556 512.52C665.576 513.239 665.991 513.034 665.856 512.371ZM780.518 512.411C778.781 512.372 777.729 510.971 779.62 511.154C779.962 511.185 778.882 511.58 779.318 511.706C780.115 511.928 780.645 511.096 781.459 511.549C781.606 511.628 780.617 512.413 780.515 512.413C780.516 512.412 780.517 512.411 780.518 512.411ZM692.379 512.015C692.368 511.983 691.956 511.953 691.946 511.985C691.722 512.751 692.554 512.809 692.379 512.015ZM648.464 510.674C648.441 510.596 647.484 510.52 647.453 510.592C646.953 512.034 648.889 512.186 648.464 510.674ZM720.166 510.488C720.617 509.827 721.155 509.76 721.514 510.592C721.067 510.544 720.616 510.533 720.166 510.488Z" fill="#8AFF80"/>
<path d="M289.594 564.88C262.434 564.88 240.034 559.98 222.394 550.18C205.034 540.1 192.154 526.38 183.754 509.02C175.634 491.66 171.574 471.64 171.574 448.96V267.94H237.094V443.5C237.094 467.3 241.994 484.1 251.794 493.9C261.874 503.42 274.754 508.18 290.434 508.18C306.394 508.18 319.274 503.28 329.074 493.48C339.154 483.68 344.194 467.02 344.194 443.5V267.94H409.714V448.96C409.714 471.92 405.374 492.08 396.694 509.44C388.294 526.8 375.274 540.38 357.634 550.18C339.994 559.98 317.314 564.88 289.594 564.88ZM501.707 559V323.8H413.927V267.94H655.007V323.8H567.227V559H501.707ZM786.802 564.88C755.442 564.88 728.842 559 707.002 547.24C685.442 535.48 669.062 518.26 657.862 495.58C646.942 472.9 641.482 445.46 641.482 413.26C641.482 389.18 645.122 367.76 652.402 349C659.962 329.96 670.462 314 683.902 301.12C697.342 287.96 713.022 278.02 730.942 271.3C749.142 264.58 768.882 261.22 790.162 261.22C806.682 261.22 821.102 262.76 833.422 265.84C845.742 268.64 855.822 271.86 863.662 275.5C871.502 278.86 876.962 281.52 880.042 283.48L861.142 336.4C852.182 331.64 841.682 327.58 829.642 324.22C817.882 320.86 804.442 319.18 789.322 319.18C775.882 319.18 763.002 322.26 750.682 328.42C738.642 334.58 728.702 344.52 720.862 358.24C713.302 371.68 709.522 389.6 709.522 412C709.522 429.92 712.182 446.02 717.502 460.3C723.102 474.58 731.922 485.92 743.962 494.32C756.282 502.72 772.522 506.92 792.682 506.92C812.002 506.92 827.262 505.1 838.462 501.46C849.942 497.54 859.182 493.9 866.182 490.54L884.242 543.04C875.002 548.64 861.982 553.68 845.182 558.16C828.382 562.64 808.922 564.88 786.802 564.88Z" fill="#89B4FA"/>
</g>
<defs>
<linearGradient id="paint0_linear_3328_715" x1="512" y1="0" x2="512" y2="1024" gradientUnits="userSpaceOnUse">
<stop stop-color="#1E1E2E"/>
<stop offset="1" stop-color="#616194"/>
</linearGradient>
<linearGradient id="paint1_linear_3328_715" x1="512" y1="0" x2="512" y2="1024" gradientUnits="userSpaceOnUse">
<stop stop-color="#616194"/>
<stop offset="0.504808" stop-color="#1E1E2E"/>
</linearGradient>
</defs>
</svg>
