<svg width="1024" height="1024" viewBox="0 0 1024 1024" fill="none" xmlns="http://www.w3.org/2000/svg">
<mask id="mask0_3323_57" style="mask-type:alpha" maskUnits="userSpaceOnUse" x="0" y="0" width="1024" height="1024">
<rect width="1024" height="1024" fill="url(#paint0_linear_3323_57)"/>
</mask>
<g mask="url(#mask0_3323_57)">
<rect width="1024" height="1024" rx="80" fill="url(#paint1_linear_3323_57)"/>
<path d="M68 750V953H136" stroke="#A6E3A1" stroke-width="80" stroke-linejoin="round"/>
<path d="M863 72L952 72L952 185" stroke="#A6E3A1" stroke-width="80" stroke-linejoin="round"/>
<path d="M838 956L952 956L952 838" stroke="#A6E3A1" stroke-width="80" stroke-linejoin="round"/>
<path d="M138 72L71 72L71 275" stroke="#A6E3A1" stroke-width="80" stroke-linejoin="round"/>
<path d="M224.826 679.04C202.146 679.04 184.366 675.12 171.486 667.28C158.886 659.16 150.066 647.96 145.026 633.68C139.986 619.4 137.466 602.74 137.466 583.7V398.06L200.046 387.98V453.08H275.226V505.16H200.046V582.86C200.046 591.54 201.026 599.24 202.986 605.96C204.946 612.4 208.446 617.44 213.486 621.08C218.526 624.44 225.666 626.12 234.906 626.12C241.626 626.12 248.486 625.56 255.486 624.44C262.766 623.04 269.346 621.22 275.226 618.98L284.046 667.7C276.486 670.78 268.086 673.44 258.846 675.68C249.606 677.92 238.266 679.04 224.826 679.04ZM292.587 674V453.08H355.167V674H292.587ZM324.087 417.8C314.007 417.8 305.187 414.58 297.627 408.14C290.347 401.42 286.707 392.32 286.707 380.84C286.707 369.36 290.347 360.4 297.627 353.96C305.187 347.24 314.007 343.88 324.087 343.88C334.167 343.88 342.847 347.24 350.127 353.96C357.687 360.4 361.467 369.36 361.467 380.84C361.467 392.32 357.687 401.42 350.127 408.14C342.847 414.58 334.167 417.8 324.087 417.8ZM380.393 674V460.64C391.313 457.56 405.033 454.76 421.553 452.24C438.353 449.44 454.873 448.04 471.113 448.04C487.073 448.04 499.953 450.14 509.753 454.34C519.833 458.26 528.093 463.02 534.533 468.62C540.693 464.14 547.273 460.5 554.273 457.7C561.553 454.62 568.973 452.24 576.533 450.56C584.093 448.88 591.093 448.04 597.533 448.04C621.053 448.04 639.113 452.38 651.713 461.06C664.593 469.46 673.413 481.22 678.173 496.34C683.213 511.46 685.733 529.1 685.733 549.26V674H623.153V556.82C623.153 543.38 622.033 532.6 619.793 524.48C617.553 516.36 613.913 510.48 608.873 506.84C603.833 503.2 597.113 501.38 588.713 501.38C586.473 501.38 583.533 501.8 579.893 502.64C576.533 503.2 573.033 504.18 569.393 505.58C565.753 506.98 562.533 508.52 559.733 510.2C561.693 516.64 562.953 523.5 563.513 530.78C564.073 537.78 564.353 545.34 564.353 553.46V674H501.773V556.82C501.773 543.38 500.653 532.6 498.413 524.48C496.173 516.36 492.533 510.48 487.493 506.84C482.453 503.2 475.733 501.38 467.333 501.38C464.813 501.38 462.153 501.52 459.353 501.8C456.553 501.8 453.753 501.94 450.953 502.22C448.433 502.5 445.773 502.92 442.973 503.48V674H380.393ZM815.221 679.88C788.621 679.88 766.641 674.84 749.281 664.76C732.201 654.68 719.461 640.96 711.061 623.6C702.661 606.24 698.461 586.78 698.461 565.22C698.461 539.18 703.501 517.48 713.581 500.12C723.941 482.48 737.101 469.32 753.061 460.64C769.301 451.68 786.381 447.2 804.301 447.2C825.301 447.2 843.361 451.54 858.481 460.22C873.601 468.62 885.221 481.22 893.341 498.02C901.741 514.82 905.941 535.68 905.941 560.6C905.941 564.24 905.801 568.3 905.521 572.78C905.241 576.98 904.961 580.76 904.681 584.12H762.721C764.121 597 770.141 607.22 780.781 614.78C791.421 622.34 805.701 626.12 823.621 626.12C835.101 626.12 846.301 625.14 857.221 623.18C868.421 620.94 877.521 618.28 884.521 615.2L892.921 666.02C886.201 669.38 875.421 672.46 860.581 675.26C846.021 678.34 830.901 679.88 815.221 679.88ZM762.721 541.28H845.461C845.181 534.28 843.641 527.56 840.841 521.12C838.041 514.68 833.701 509.36 827.821 505.16C822.221 500.96 814.661 498.86 805.141 498.86C795.621 498.86 787.921 500.96 782.041 505.16C776.441 509.08 772.101 514.26 769.021 520.7C765.941 527.14 763.841 534 762.721 541.28Z" fill="#89B4FA"/>
</g>
<defs>
<linearGradient id="paint0_linear_3323_57" x1="512" y1="0" x2="512" y2="1024" gradientUnits="userSpaceOnUse">
<stop stop-color="#1E1E2E"/>
<stop offset="1" stop-color="#616194"/>
</linearGradient>
<linearGradient id="paint1_linear_3323_57" x1="512" y1="0" x2="512" y2="1024" gradientUnits="userSpaceOnUse">
<stop offset="0.245192" stop-color="#616194"/>
<stop offset="1" stop-color="#1E1E2E"/>
</linearGradient>
</defs>
</svg>
